<?xml version="1.0" encoding="UTF-8" standalone="no"?>
<svg width="80px" height="50px" viewBox="0 0 80 50" version="1.1" xmlns="http://www.w3.org/2000/svg" xmlns:xlink="http://www.w3.org/1999/xlink" xmlns:sketch="http://www.bohemiancoding.com/sketch/ns">
    <!-- Generator: Sketch 3.4 (15575) - http://www.bohemiancoding.com/sketch -->
    <title>project_01--numerals</title>
    <desc>Created with Sketch.</desc>
    <defs></defs>
    <g id="Page-2" stroke="none" stroke-width="1" fill="none" fill-rule="evenodd" sketch:type="MSPage">
        <g id="hyams_website" sketch:type="MSArtboardGroup" transform="translate(-12.000000, -1560.000000)" fill-opacity="0.4" fill="#DC7A6E">
            <g id="content__01" sketch:type="MSLayerGroup" transform="translate(-177.000000, 1492.000000)">
                <g id="project_01--numerals" transform="translate(189.000000, 68.000000)" sketch:type="MSShapeGroup">
                    <path d="M51.5914286,49.5042857 C51.9692857,49.16 52.0721429,48.985 52.2064286,48.9557143 C55.9885714,48.13 57.2057143,45.4314286 57.2157143,41.9557143 C57.2471429,31.2471429 57.2821429,20.5385714 57.2064286,9.83 C57.1714286,4.825 55.6128571,2.95428571 51.3492857,2.365 C51.1014286,2.33071429 50.8792857,2.11214286 50.6921429,1.66571429 C58.2521429,1.39571429 65.8121429,1.12571429 73.4935714,0.850714286 C73.5364286,1.38071429 73.6057143,1.835 73.6057143,2.28857143 C73.5914286,14.6642857 73.5642857,27.04 73.5607143,39.4157143 C73.5607143,40.72 73.6285714,42.0314286 73.7807143,43.3264286 C74.1078571,46.1014286 75.39,48.1428571 78.285,48.8578571 C78.5185714,48.9157143 78.7178571,49.1121429 79.3578571,49.5042857 L51.5914286,49.5042857" id="Fill-1"></path>
                    <path d="M21.7178571,0.716428571 C19.0892857,2.09857143 18.2507143,4.49714286 17.9921429,7.11 C16.7864286,19.2778571 16.7771429,31.4557143 17.9992857,43.6235714 C18.2614286,46.235 19.1264286,48.6 21.9735714,49.82 C17.5528571,50.8757143 9.27428571,46.8 5.54285714,41.5507143 C-1.07857143,32.2357143 -1.44357143,22.2557143 3.57142857,12.2335714 C7.21,4.96214286 13.5885714,1.31928571 21.7178571,0.716428571" id="Fill-2"></path>
                    <path d="M24.0157143,49.9971429 C27.1664286,48.4864286 27.7635714,45.5692857 28.0178571,42.6707143 C29.0614286,30.8014286 29.205,18.9228571 27.8514286,7.06214286 C27.5514286,4.43142857 26.7257143,2.04642857 24.0057143,0.657142857 C24.3578571,0.623571429 24.7171429,0.525714286 25.0607143,0.565714286 C36.0571429,1.84285714 44.41,10.6692857 45.3092857,21.91 C45.8978571,29.2578571 44.7971429,36.1514286 39.9657143,42.0457143 C35.87,47.0421429 30.53,49.6192857 24.0157143,49.9971429" id="Fill-3"></path>
                </g>
            </g>
        </g>
    </g>
</svg>