<?xml version="1.0" encoding="UTF-8" standalone="no"?>
<svg width="91px" height="49px" viewBox="0 0 91 49" version="1.1" xmlns="http://www.w3.org/2000/svg" xmlns:xlink="http://www.w3.org/1999/xlink" xmlns:sketch="http://www.bohemiancoding.com/sketch/ns">
    <!-- Generator: Sketch 3.4 (15575) - http://www.bohemiancoding.com/sketch -->
    <title>project_02--numerals</title>
    <desc>Created with Sketch.</desc>
    <defs></defs>
    <g id="Page-2" stroke="none" stroke-width="1" fill="none" fill-rule="evenodd" sketch:type="MSPage">
        <g id="hyams_website" sketch:type="MSArtboardGroup" transform="translate(-9.000000, -2550.000000)" fill-opacity="0.4" fill="#DC7A6E">
            <g id="content__02" sketch:type="MSLayerGroup" transform="translate(-57.000000, 2495.500000)">
                <g id="project_02--numerals" transform="translate(66.000000, 54.000000)" sketch:type="MSShapeGroup">
                    <path d="M63.5908451,35.193662 C64.9021127,33.715493 65.9098592,32.6049296 66.8901408,31.4704225 C70.1119718,27.7408451 72.3161972,23.6014085 72.5084507,18.5183099 C72.7112676,13.1309859 69.5774648,10.1380282 64.2105634,10.7007042 C60.8549296,11.0521127 57.8091549,12.0535211 55.271831,14.3591549 C55.0661972,14.5457746 54.7950704,14.6591549 54.384507,14.9105634 C54.4211268,14.4549296 54.3725352,14.1542254 54.4746479,13.9197183 C58.7457746,4.12394366 68.784507,-2.51126761 80.8084507,1.77746479 C88.5619718,4.54295775 90.0788732,13.3197183 87.0852113,18.9661972 C84.671831,23.5190141 80.9704225,26.8619718 76.5690141,29.3274648 C72.8521127,31.4105634 68.8908451,33.0591549 65.0302817,34.8838028 C64.7464789,35.0183099 64.4028169,35.0246479 63.5908451,35.193662" id="Fill-3"></path>
                    <path d="M50.9478873,48.8584507 C54.6070423,45.0429577 58.0570423,41.3957746 61.5901408,37.8302817 C61.9943662,37.4232394 62.8598592,37.3380282 63.5133803,37.3330986 C68.6697183,37.2950704 73.8295775,37.1922535 78.9816901,37.3450704 C84.2760563,37.5021127 87.784507,35.1288732 89.8697183,30.3915493 C89.9809859,30.1373239 90.1316901,29.9014085 90.2640845,29.656338 C90.4295775,29.6795775 90.5957746,29.7028169 90.7612676,29.7267606 C90.2556338,36.0612676 89.75,42.3964789 89.2338028,48.8584507 L50.9478873,48.8584507" id="Fill-4"></path>
                    <path d="M21.7077465,0.725352113 C18.4943662,2.45633803 18.0922535,5.51760563 17.8359155,8.57323944 C16.9077465,19.6422535 16.9035211,30.7190141 17.8661972,41.784507 C18.1211268,44.7161972 18.5091549,47.7183099 21.9352113,49.1042254 C18.3619718,50.2732394 10.3619718,46.7253521 6.55140845,42.0119718 C-0.429577465,33.3788732 -1.14295775,23.6753521 3.0056338,13.7253521 C6.37183099,5.64859155 12.9380282,1.47183099 21.7077465,0.725352113" id="Fill-1"></path>
                    <path d="M23.9901408,0.512676056 C28.093662,0.826760563 31.8197183,2.03591549 35.1288732,4.36408451 C40.6535211,8.24929577 43.8267606,13.6478873 44.743662,20.2887324 C45.7971831,27.9246479 44.7619718,35.1323944 39.784507,41.3915493 C35.9521127,46.2105634 29.2957746,49.6176056 23.6992958,49.3816901 C28.4732394,46.7549296 28.1732394,42.1514085 28.2556338,38.0633803 C28.4507042,28.4021127 28.2112676,18.7295775 28.006338,9.06408451 C27.9690141,7.29295775 27.4964789,5.43732394 26.7950704,3.8056338 C26.284507,2.61690141 25.0676056,1.73169014 23.9901408,0.512676056" id="Fill-2"></path>
                </g>
            </g>
        </g>
    </g>
</svg>