<?xml version="1.0" encoding="UTF-8" standalone="no"?>
<svg width="83px" height="50px" viewBox="0 0 83 50" version="1.1" xmlns="http://www.w3.org/2000/svg" xmlns:xlink="http://www.w3.org/1999/xlink" xmlns:sketch="http://www.bohemiancoding.com/sketch/ns">
    <!-- Generator: Sketch 3.4 (15575) - http://www.bohemiancoding.com/sketch -->
    <title>project_03--numerals</title>
    <desc>Created with Sketch.</desc>
    <defs></defs>
    <g id="Page-2" stroke="none" stroke-width="1" fill="none" fill-rule="evenodd" sketch:type="MSPage">
        <g id="hyams_website" sketch:type="MSArtboardGroup" transform="translate(-12.000000, -3618.000000)" fill-opacity="0.4" fill="#DC7A6E">
            <g id="content__03" sketch:type="MSLayerGroup" transform="translate(0.000000, 3546.500000)">
                <g id="project_03--numerals" transform="translate(12.000000, 72.000000)" sketch:type="MSShapeGroup">
                    <path d="M54.8450704,30.2119718 C58.0197183,26.8894366 60.9964789,23.7598592 64.0021127,20.6577465 C64.2105634,20.4422535 64.628169,20.3478873 64.9528169,20.3394366 C68.6190141,20.2450704 72.2464789,20.5809859 75.6161972,22.1091549 C82.9204225,25.4232394 85.1478873,33.3464789 80.7401408,40.215493 C77.9950704,44.4929577 73.8443662,46.8450704 69.0943662,48.1535211 C66.6577465,48.8246479 64.1077465,49.084507 61.6091549,49.5302817 C61.5612676,49.35 61.5133803,49.1697183 61.4661972,48.9894366 C61.7873239,48.8316901 62.0922535,48.6176056 62.4309859,48.5253521 C69.1866197,46.6838028 70.4647887,37.8697183 67.543662,33.6253521 C65.8802817,31.2098592 63.2584507,30.4492958 60.4985915,30.2373239 C58.7577465,30.1035211 56.9971831,30.2119718 54.8450704,30.2119718" id="Fill-3"></path>
                    <path d="M51.4570423,12.8429577 C52.1274648,9.93732394 53.6190141,7.56126761 55.565493,5.4528169 C61.0035211,-0.435915493 68.7007042,-0.670422535 75.0140845,1.77464789 C78.2690141,3.03521127 79.8394366,5.77605634 79.943662,9.23380282 C80.0373239,12.3394366 78.506338,14.5908451 75.843662,16.084507 C72.7007042,17.8485915 69.2732394,18.5880282 65.9971831,18.9549296 C66.3577465,17.2323944 66.9021127,15.6338028 66.971831,14.0147887 C67.0429577,12.3746479 66.0485915,11.1190141 64.4380282,10.584507 C60.1190141,9.14929577 56.0309859,9.28873239 52.4584507,12.5288732 C52.3295775,12.6457746 52.1901408,12.7605634 52.0359155,12.834507 C51.943662,12.8795775 51.8126761,12.8429577 51.4570423,12.8429577" id="Fill-4"></path>
                    <path d="M50.3570423,44.0528169 C50.3690141,41.0239437 52.806338,38.6246479 55.8464789,38.65 C58.8021127,38.6753521 61.1239437,41.043662 61.1359155,44.0464789 C61.1471831,46.9866197 58.7626761,49.443662 55.8535211,49.4908451 C52.9028169,49.5380282 50.3450704,47.0077465 50.3570423,44.0528169" id="Fill-5"></path>
                    <path d="M21.5232394,0.75915493 C18.3126761,2.28239437 17.7577465,5.25492958 17.6514085,8.19647887 C17.3478873,16.5711268 17.2169014,24.9535211 17.1267606,33.334507 C17.0985915,35.965493 17.3542254,38.6056338 17.5908451,41.2323944 C17.8704225,44.3373239 18.2133803,47.4591549 21.7204225,49.0922535 C16.6929577,50.0309859 8.39295775,45.6612676 4.76619718,39.8802817 C-1.13309859,30.4760563 -1.19577465,20.7408451 4.07887324,11.0338028 C7.44295775,4.84295775 15.043662,0.402112676 21.5232394,0.75915493" id="Fill-1"></path>
                    <path d="M23.7605634,0.402816901 C27.8570423,0.704929577 31.593662,1.89929577 34.8830986,4.2471831 C42.0746479,9.38098592 44.9288732,16.6387324 44.8669014,25.2443662 C44.806338,33.6007042 41.8697183,40.5866197 34.9330986,45.5591549 C31.634507,47.9246479 27.884507,49.1253521 23.6985915,49.2964789 C28.2401408,46.6485915 27.9366197,42.0443662 28.0197183,37.9591549 C28.2161972,28.2978873 27.9760563,18.6253521 27.7725352,8.95985915 C27.7352113,7.18873239 27.265493,5.33239437 26.5647887,3.7 C26.0542254,2.50915493 24.8366197,1.62253521 23.7605634,0.402816901" id="Fill-2"></path>
                </g>
            </g>
        </g>
    </g>
</svg>