<svg width="42" height="48" xmlns="http://www.w3.org/2000/svg"><g fill="#0D1B17" fill-rule="evenodd"><path d="M23.6083846 12.15v7.4301923h-5.7885923V12.15H8.78538462v23.8846154h9.03440768v-7.4301923h5.7885923v7.4301923H32.67V12.15h-9.0616154zM10.4365385 28.6428462h5.7323077v5.7323076h-5.7323077v-5.7323076zm0-7.4166924h5.7323077v5.7323077h-5.7323077v-5.7323077zm0-7.4166923h5.7323077v5.7323077h-5.7323077v-5.7323077zm7.3832538 7.391977h5.7885923v5.7819461h-5.7885923v-5.7819461zm7.4397462 7.4414077h5.7323077v5.7323076h-5.7323077v-5.7323076zm0-14.8333847h5.7323077v5.7323077h-5.7323077v-5.7323077z"/><path d="M.03364615 36.0400154V12.1448077L20.7276923.1968923l20.6940462 11.9479154v23.8952077L20.7276923 47.9877231.03364615 36.0400154zm20.69404615 9.5378538l18.6069462-10.7426769V13.3496308L20.7276923 2.60716154 2.12095385 13.3496308v21.4855615L20.7276923 45.5778692z"/></g></svg>