<svg viewBox="0 0 45 52" xmlns="http://www.w3.org/2000/svg"><title>logo</title><g fill="#263430" fill-rule="evenodd"><path d="M25.57575 13.1625v8.049375h-6.270975V13.1625H9.5175v25.875h9.787275v-8.049375h6.270975V39.0375h9.81675v-25.875h-9.81675zm-14.2695 17.86725h6.21v6.21h-6.21v-6.21zm0-8.03475h6.21v6.21h-6.21v-6.21zm0-8.03475h6.21v6.21h-6.21v-6.21zm7.998525 8.007975h6.270975V29.232h-6.270975v-6.263775zM27.3645 31.02975h6.21v6.21h-6.21v-6.21zm0-16.0695h6.21v6.21h-6.21v-6.21z"/><path d="M.03645 39.04335V13.156875L22.455.2133l22.41855 12.943575V39.04335L22.455 51.9867.03645 39.04335zM22.455 49.376025l20.157525-11.6379V14.4621L22.455 2.824425 2.2977 14.4621v23.276025l20.1573 11.6379z"/></g></svg>