<?xml version="1.0" encoding="UTF-8" standalone="no"?>
<svg width="45px" height="52px" viewBox="0 0 45 52" version="1.1" xmlns="http://www.w3.org/2000/svg" xmlns:xlink="http://www.w3.org/1999/xlink" xmlns:sketch="http://www.bohemiancoding.com/sketch/ns">
    <!-- Generator: Sketch 3.4 (15575) - http://www.bohemiancoding.com/sketch -->
    <title>logo</title>
    <desc>Created with Sketch.</desc>
    <defs></defs>
    <g id="Page-2" stroke="none" stroke-width="1" fill="none" fill-rule="evenodd" sketch:type="MSPage">
        <g id="hyams_website_iPhone5" sketch:type="MSArtboardGroup" transform="translate(-9.000000, -19.000000)" fill="#263430">
            <g id="header" sketch:type="MSLayerGroup" transform="translate(0.000000, -13.000000)">
                <g id="logo" transform="translate(9.000000, 32.000000)" sketch:type="MSShapeGroup">
                    <path d="M25.57575,13.1625 L25.57575,21.211875 L19.304775,21.211875 L19.304775,13.1625 L9.5175,13.1625 L9.5175,39.0375 L19.304775,39.0375 L19.304775,30.988125 L25.57575,30.988125 L25.57575,39.0375 L35.3925,39.0375 L35.3925,13.1625 L25.57575,13.1625 L25.57575,13.1625 Z M11.30625,31.02975 L17.51625,31.02975 L17.51625,37.23975 L11.30625,37.23975 L11.30625,31.02975 Z M11.30625,22.995 L17.51625,22.995 L17.51625,29.205 L11.30625,29.205 L11.30625,22.995 Z M11.30625,14.96025 L17.51625,14.96025 L17.51625,21.17025 L11.30625,21.17025 L11.30625,14.96025 Z M19.304775,22.968225 L25.57575,22.968225 L25.57575,29.232 L19.304775,29.232 L19.304775,22.968225 Z M27.3645,31.02975 L33.5745,31.02975 L33.5745,37.23975 L27.3645,37.23975 L27.3645,31.02975 Z M27.3645,14.96025 L33.5745,14.96025 L33.5745,21.17025 L27.3645,21.17025 L27.3645,14.96025 Z" id="Fill-1"></path>
                    <path d="M0.03645,39.04335 L0.03645,13.156875 L22.455,0.2133 L44.87355,13.156875 L44.87355,39.04335 L22.455,51.9867 L0.03645,39.04335 L0.03645,39.04335 Z M22.455,49.376025 L42.612525,37.738125 L42.612525,14.4621 L22.455,2.824425 L2.2977,14.4621 L2.2977,37.738125 L22.455,49.376025 L22.455,49.376025 Z" id="Fill-2"></path>
                </g>
            </g>
        </g>
    </g>
</svg>