<svg xmlns="http://www.w3.org/2000/svg" width="319" height="319" viewBox="0 0 319 319">
  <path fill="#536A5E" fill-rule="evenodd" d="M0 54.254v-.898c2.55202492-.011 4.5657321.91 6.5246106 1.796 2.79925233 1.27 5.6762617 2.571 10.3656075 1.359 4.9923987-1.302 14.6292835-7.174 15.6700311-10.891.4366355-1.584.034891-3.032-.345919-4.425-.1575078-.572-.3140187-1.122-.4037383-1.661-.4137072-2.413-.6380062-4.323-.873271-6.333-.1006854-.841-.2013707-1.706-.3239876-2.66-.5821807-4.526-1.4544548-8.781-2.3845483-13.295-.302056-1.426-.5931464-2.863-.8952024-4.322-.3588786-1.786-.8613085-3.548-1.3657321-5.233-.4705296-1.616-.9629907-3.267-1.3208723-4.952C24.4456075 1.774 24.311028.876 24.233271 0h.9061683c.0897196.988.2472274 1.886.3917757 2.56.3469158 1.65.8284112 3.278 1.2979439 4.861.5044237 1.73 1.0307788 3.504 1.3886604 5.323.2910904 1.46.5931464 2.908.873271 4.311.9400623 4.537 1.8352648 8.814 2.4174455 13.373.1116511.954.2242991 1.83.3140187 2.661.2561994 2.1.4695327 3.896.8722742 6.299.0787539.494.224299 1.022.379813 1.55.4037384 1.459.8623053 3.098.3479128 4.94-1.2082243 4.289-11.5519003 10.262-16.3080374 11.508-4.981433 1.281-8.02591897-.09-10.95875386-1.425C4.20884734 55.086 2.3506542 54.254 0 54.254zm12.1779439 38.074c2.3057944.495 4.6903427 1.011 6.7150156 1.562 3.9855452 1.089 6.045109 2.986 6.6492212 6.119.4366355 2.267.3359501 5.03.2133333 7.949-.112648 2.773-.2352648 5.636.0897196 8.466.9958879 8.915 6.8386293 9.825 12.48 10.689 3.6485982.573 7.1745795 1.044 10.3087851 1.033 5.82081 0 10.2409969-1.594 11.4173209-7.051.951028-4.435.2910903-9.723-.4037384-15.337-.3359501-2.672-.682866-5.435-.8503426-8.175-.1116511-1.92-.2581932-4.098-.6041122-6.04-.8174455-4.582-2.9109034-7.647-4.9246106-10.622-1.9708411-2.92-3.84-5.66-4.6235514-9.735-1.0068536-5.311-1.0517134-9.566-.1565109-12.643.9849221-3.334 4.0633022-3.122 7.9581309-2.874 1.6119626.101 3.2907165.213 4.9694704.067l.190405-.011c1.3766978-.112 2.6756386-.236 4.0633021-.595C72.2621807 53.367 71.68 47.978 70.425919 42.139c-.1216199-.527-.2442368-1.067-.3798131-1.594-.4705296-1.876-.9280997-3.683-.3688473-5.344.5482866-1.673 1.4773831-2.886 2.4513395-4.189 1.0736449-1.414 2.1941433-2.886 2.9218692-5.098.0996885-.347.2233022-.674.3239875-1.021.2801246-.853.5373209-1.673.8623053-2.549.6709035-1.852 1.7116511-3.582 2.707539-5.266.9968847-1.684 2.0157009-3.425 2.6646729-5.209.1684735-.518.3469159-1.629.1455451-2.37-1.2082243-4.278-11.640623-7.096-12.0772585-7.219-1.3996262-.371-2.7653583-.551-4.0971963-.719-1.1972586-.146-2.3386916-.292-3.4143302-.584C61.1818069.73 60.1290966.393 59.0434891 0h-2.5290966c1.9239876.763 3.7602492 1.426 5.4280374 1.853 1.1304673.292 2.2948287.438 3.5140187.606 1.3099065.157 2.6537072.337 3.9855452.685 4.1639875 1.112 10.6557009 3.796 11.450218 6.602.1335826.46.0338941 1.336-.1345794 1.83-.6041122 1.695-1.5661059 3.323-2.5849221 5.052-1.0178193 1.708-2.0705296 3.482-2.776324 5.402-.3249844.898-.5811838 1.718-.8722742 2.593-.1006853.326-.2133333.674-.3359501 1.022-.6719003 2.055-1.7465421 3.47-2.776324 4.839-.9739564 1.28-1.9818068 2.616-2.585919 4.435-.648972 1.91-.1565109 3.83.3578816 5.85.112648.517.2462306 1.045.3708411 1.561 1.2072275 5.603 1.7236138 10.374-4.1310903 11.936-1.2869782.337-2.5071651.437-3.8948287.572l-.2013707.011c-1.6019937.124-3.2348909.023-4.8249221-.078-3.9506542-.259-7.6780062-.495-8.8642991 3.503-.9520249 3.233-.9181308 7.624.1226169 13.081.8284112 4.255 2.8321495 7.207 4.7680997 10.071 1.9708411 2.897 4.0074766 5.895 4.791028 10.285.3239875 1.864.4705296 4.02.5921495 5.928.1575078 2.763.5044237 5.547.8403739 8.23.6838629 5.536 1.3438006 10.746.414704 15.035-1.634891 7.635-10.7234891 6.883-20.696324 5.333-6.7379439-1.055-10.88-2.245-11.7423053-9.903-.3010592-2.762-.190405-5.603-.077757-8.342.1226168-2.976.2352648-5.783-.2233022-8.163-.682866-3.514-2.9338317-5.603-7.3091588-6.815-2.0266667-.54-4.4321496-1.067-6.7499066-1.572-1.2311526-.259-2.5071651-.539-3.70442367-.82C6.50267913 90.128 3.6047352 89.612 0 89.084v.909c3.52498442.517 6.34616822 1.022 8.46155763 1.516 1.19825545.27 2.48523367.539 3.71638627.819zM5.8317757 36.165c.61507788 0 1.35476636.035 2.1492835.08.97395638.044 2.0705296.111 3.2009969.111 2.3835514 0 5.8427414-.224 8.2821184-2.099 2.9557632-2.268 4.0084735-5.67 3.4472274-11.037-.4137072-3.807-1.5780686-7.478-2.8092212-11.374C18.9049221 8.05 17.6737695 4.143 17.1703427 0h-.6051091c.5143926 4.21 1.7575078 8.174 2.9776947 12.025 1.2311527 3.873 2.3725857 7.523 2.7643614 11.262.5482866 5.131-.4476012 8.376-3.2119626 10.498-2.2838629 1.763-5.6074766 1.965-7.913271 1.965-1.1204985 0-2.21707168-.056-3.18006233-.101-.79352025-.045-1.54317757-.078-2.17021807-.078-.52635514 0-.93009346.022-1.24311526.078C2.83214954 35.952 1.35476636 36.57 0 37.345v.685c1.37669782-.82 2.89794393-1.483 4.69034268-1.797.27912772-.045.64797508-.068 1.14143302-.068zM109.479875 8.174c.066792.494.13458.955.167477 1.381 1.186293 5.412 4.309533 8.152 9.312897 8.152.794517 0 1.645857-.068 2.541059-.214 4.879751-.785 15.143676-3.694 19.454206-6.298C145.566106 8.41 147.860935 3.694 149.01433 0h-.314018c-1.130468 3.627-3.414331 8.241-7.890343 10.936-4.288598 2.594-14.484735 5.49-19.35352 6.255-.885234.145-1.723614.224-2.4962.224-4.835888 0-7.880374-2.672-9.021807-7.905-.032897-.404-.089719-.876-.167476-1.37-.190405-1.492-.436636-3.334-.145545-4.906.200373-1.134.581183-2.189 1.096573-3.234h-.324985c-.503426 1.022-.872274 2.066-1.073645 3.178-.280124 1.616-.033894 3.503.156511 4.996zM2.0705296 15.135c2.18317757 0 5.11601246-.415 6.7269782-2.391C10.6885981 10.442 11.4731464 5.165 11.2269159 0h-.268162c.2342679 5.075-.5383178 10.285-2.39551402 12.553-1.19825546 1.471-3.50404985 2.28-6.49271028 2.28-.69383178 0-1.3986293-.045-2.0705296-.125V15c.68286604.09 1.38766355.135 2.0705296.135zM1.76847352 3.312c.9400623-.674 1.4883489-1.92 1.50031153-3.312H2.9657321c0 1.302-.51439254 2.447-1.37669783 3.076-.44760125.337-.99588785.517-1.56610592.517C.01096573 3.593.01096573 3.582 0 3.582v.292c.01096573 0 .01096573.011.02292835.011.6260436 0 1.23115265-.203 1.74554517-.573zM37.7649844 19.571c-.1784423-1.044-.3688473-2.123-.6150779-3.122-.5482866-3.548.2791278-7.534 1.9818069-9.521 1.409595-1.662 3.2907165-1.797 5.3153894-.371 3.1461682 2.201 3.9855452 7.018 4.6574455 10.891.1664797.978.3349533 1.899.5143925 2.707.077757 2.571-.9629906 6.355-2.854081 8.308-.8054829.853-1.6787539 1.269-2.6088473 1.269-.8603116 0-1.7335826-.371-2.6078505-1.112-2.5968847-2.189-3.2009969-5.68-3.7831776-9.049zm-.3239875-3.19c.2462305 1.011.4366355 2.089.6150779 3.133.5712149 3.324 1.1643613 6.76 3.6824922 8.882.8294081.696 1.6348909 1.033 2.4174455 1.033.8403738 0 1.6458567-.393 2.395514-1.168 1.8362617-1.886 2.8550779-5.592 2.7643614-8.073-.1784424-.786-.3359502-1.706-.50243-2.695-.6719003-3.817-1.5003115-8.555-4.5447975-10.699-.8623053-.608-1.6897196-.921-2.4623053-.921-.9181308 0-1.7355763.426-2.4513395 1.257-1.634891 1.919-2.4403739 5.816-1.9140187 9.251zM154.262928 39.557c-.043863 3.704-1.902056 7.309-5.103053 9.846-5.015327 3.987-11.328598 6.468-16.476511 6.468-.436635 0-.873271-.022-1.29894-.056-2.78729-.248-6.110904-1.257-9.122493-2.785-5.495825-2.773-9.827289-7.017-12.894704-12.598-1.51028-3.749 2.686605-6.22 4.075265-7.029 5.674268-3.345 14.146791-6.95 20.304548-7.511 1.174331-.101 2.304798-.169 3.345546-.169 6.436884 0 9.805358 2.078 12.503925 4.312 3.055452 2.537 4.711277 5.929 4.666417 9.522zm-.302056-.012c.04486-3.503-1.567103-6.792-4.554766-9.263-2.641745-2.223-5.966355-4.255-12.31352-4.255-1.028785 0-2.149284.056-3.312648.169-6.110904.561-14.540561 4.154-20.191901 7.466-1.331838.775-5.373208 3.155-3.952648 6.635 3.023552 5.513 7.321122 9.712 12.749159 12.464 3.000623 1.515 6.280374 2.515 9.022804 2.751.413707.033.839377.055 1.276012.055 5.092088 0 11.327602-2.446 16.286106-6.388 3.133209-2.492 4.957508-5.996 4.991402-9.634zm-8.562243.382v.034c-.795514 6.669-7.063925 9.712-12.536822 9.712h-.010966c-4.376324 0-9.715639-1.964-11.5519-7.467l-.010966-.033v-.034c.022928-.438-.009969-.887-.054829-1.325-.056822-.729-.112648-1.493.088723-2.201 1.343801-4.75 7.868411-7.59 13.421059-7.59 2.696574 0 5.069159.663 6.670156 1.864 2.249969 1.808 3.626667 4.255 3.985545 7.04zm-.302056.022c-.358878-2.717-1.679751-5.075-3.861931-6.826-1.556137-1.157-3.872897-1.797-6.491714-1.797-5.44 0-11.832025 2.763-13.140934 7.366-.190405.663-.123614 1.358-.067788 2.1.022928.438.067788.886.044859 1.336 1.813334 5.344 7.0081 7.254 11.271776 7.254h.010966c5.35028 0 11.450218-2.954 12.234766-9.433zm54.711028 6.749c-.256199.505-.469532.954-.604112 1.325-.638006 1.594-.828411 2.952-1.018816 4.243-.077757.618-.145545 1.18-.280125 1.753.13458 1.19.292088 2.458.458567 3.682.639003 4.738 1.27701 9.634.112648 12.778-1.331838 3.571-3.637632 8.792-5.450965 11.867-3.905795 6.603-11.214954 13.104-17.136449 18.022-3.739315 2.627-8.763614 3.29-13.644361 3.941-3.649595.483-7.096823.943-10.028661 2.156-3.212959 1.324-5.809844 2.975-8.730716 5.513-3.536947 3.054-5.395141 6.872-7.55539 11.273-.346916.707-.704797 1.437-1.063676 2.178-2.708536 5.4-10.45433 13.832-15.290218 15.585-1.578068.549-3.200997.853-4.790031.853-4.275639 0-8.496449-2.133-11.59676-5.839-3.2787541-3.908-4.8338943-9.038-4.0732712-13.394.3907788-3.953 2.7414332-6.177 5.4838632-8.781 1.198255-1.145 2.440374-2.325 3.593769-3.739 2.304798-2.796 2.551028-5.502 2.294829-10.892-.38081-7.735.726729-14.551 3.368473-20.827l.190405-.45c1.186293-2.807 3.156137-7.511 8.058817-7.511.379813 0 .772585.023 1.175327.078 1.297944.18 2.372585.539 3.447227.887 1.500312.483 3.055452 1 5.19377 1 .660934 0 1.3438-.057 2.059563-.146 1.724611-.225 4.746169-1.235 6.995141-2.133 1.085607-.438 4.824922-2 7.734828-3.885 1.331838-.865 2.608848-1.831 3.962617-2.853 1.387664-1.044 2.83215-2.133 4.38729-3.143 2.809221-1.831 5.596511-3.335 8.485483-4.604 7.006106-3.077 12.401246-6.209 16.97894-9.881 1.231153-.999 2.485234-2.222 3.671527-3.435 1.331838-1.314 2.709533-2.684 4.08623-3.739 1.219191-.932 3.222929-1.527 5.103053-1.527 1.611963 0 3.067415.426 4.208848 1.223 3.256822 2.292 1.43352 5.974.212336 8.422zm-.38081-8.175c-1.096573-.763-2.484236-1.167-4.040374-1.167-1.80137 0-3.749283.583-4.92461 1.459-1.364735 1.044-2.731464 2.403-4.05134 3.728-1.198255 1.201-2.452336 2.436-3.694455 3.437-4.600623 3.693-10.017694 6.837-17.046729 9.924-2.887975 1.27-5.64137 2.763-8.439626 4.593-1.545171 1.01-2.989657 2.077-4.377321 3.132-1.364735 1.023-2.640747 1.988-3.984548 2.853-2.932835 1.897-6.705047 3.469-7.778691 3.907-2.260935.909-5.317384 1.931-7.062929 2.156-.738691.101-1.432523.146-2.104423.146-2.183178 0-3.761247-.505-5.293458-1.011-1.042742-.348-2.127352-.696-3.381433-.865-.390779-.066-.771589-.089-1.141433-.089-4.712275 0-6.626293 4.592-7.767726 7.332l-.201371.46c-2.642741 6.221-3.728349 12.991-3.347539 20.693.269159 5.468 0 8.22-2.350654 11.094-1.175327 1.426-2.428411 2.627-3.636636 3.761-2.698567 2.549-5.0143299 4.761-5.3951399 8.613-.7506542 4.288.7825549 9.318 4.0064799 13.159 3.03352 3.637 7.185545 5.715 11.372461 5.715 1.556137 0 3.134206-.27 4.679377-.831 4.779065-1.718 12.434143-10.072 15.13271-15.428.368848-.741.715763-1.47 1.062679-2.167 2.171215-4.435 4.041371-8.275 7.623178-11.385 2.942804-2.56 5.584548-4.21 8.808473-5.546 2.977695-1.236 6.436885-1.696 10.107415-2.179 4.845856-.641 9.849221-1.313 13.510779-3.885 5.887601-4.896 13.161869-11.374 17.06866-17.942 1.802368-3.065 4.097196-8.253 5.406106-11.823 1.141433-3.077.504424-7.928-.111651-12.609-.168474-1.247-.334953-2.528-.47053-3.728v-.023l.010966-.023c.124611-.572.190405-1.145.29109-1.751.168474-1.258.369845-2.695 1.007851-4.333.157508-.372.368847-.82.62704-1.338 1.163365-2.346 2.931838-5.894-.112648-8.039zM72.06081 71.838c-.3239876-2.415.0328972-6.659 1.7914018-8.691.8842368-1.011 2.0366356-1.348 3.3684736-.966 1.4893458.449 2.6866043 1.774 3.2907165 3.672.795514 2.458.4485981 5.243-.8732711 6.927-.9061682 1.168-2.3725856 1.876-3.805109 1.876-1.7804361 0-3.1451713-1.023-3.7722118-2.818zm.2910903-.08c.571215 1.651 1.8362617 2.606 3.4811215 2.606 1.3547664 0 2.7195016-.686 3.5698442-1.763 1.2660437-1.617 1.5900312-4.278.8294081-6.658-.5821806-1.808-1.7016822-3.066-3.0893458-3.47-.3359501-.101-.6599376-.146-.9629906-.146-.8174455 0-1.5102804.348-2.1044237 1.022-1.7006853 1.953-2.0366355 6.086-1.7236137 8.409zm106.7823057-.729l-.021932.651c-.055825 1.112-.04486 2.302-.033894 3.56.010966 2.155.022928 4.389-.29109 6.276-.616075 3.593-2.675639 7.208-4.264673 9.218-4.241745 5.367-8.024922 6.13-16.264175 6.692-2.238006.157-4.398255.528-6.301308.854-1.835265.325-3.424299.594-4.756137.64-.145545.01-.280125.01-.415701.01-6.379065 0-7.913271-4.378-9.378692-8.588-.100685-.292-.20137-.573-.303053-.855l-.010965-.044c-.066792-3.021.851339-4.671 1.85919-5.996 2.238006-2.93 5.73109-4.704 9.423551-6.568 2.977695-1.516 6.078006-3.077 8.786542-5.39.907165-.775 1.645857-1.493 2.339689-2.167.62704-.595 1.254081-1.212 1.992772-1.864 3.279751-2.863 8.349907-4.873 12.289595-4.873.605109 0 1.176324.057 1.712648.146 4.029408.674 3.883863 3.874 3.637633 8.298zm-3.694455-7.994c-.50243-.101-1.073645-.136-1.655826-.136-3.88486 0-8.864299 1.965-12.09919 4.795-.727726.629-1.332835 1.224-1.969844 1.842-.704798.695-1.444486 1.404-2.362617 2.177-2.731464 2.337-5.841744 3.908-8.842367 5.435-3.659564 1.842-7.12972 3.616-9.323863 6.491-.961994 1.279-1.857197 2.862-1.790405 5.77.088722.269.20137.551.290093.82 1.444486 4.132 2.933832 8.399 9.099564 8.399.135576 0 .258193-.012.403738-.012 1.309907-.033 2.887975-.303 4.712274-.617 1.914019-.348 4.086231-.719 6.3362-.865 8.147539-.561 11.874891-1.314 16.038878-6.58 1.567103-1.986 3.615701-5.558 4.218816-9.083.315016-1.863.303053-4.087.270156-6.231 0-1.258-.011962-2.448.04486-3.571l.043863-.651c.213333-4.435.369844-7.355-3.41433-7.983zM14.7748287 84.222c6.0221806.595 9.9847975.932 16.2631775 1.246.4705296.191.9629907.28 1.5451714.28.8623053 0 1.7126479-.201 2.5410592-.381.3688473-.09.7167601-.168 1.0626791-.225l.0558255-.021c.2133334-.158.4037384-.349.5821807-.54.1455452-.146.2801246-.28.4256698-.404l.0558255-.034v-.056c.571215-3.424 1.2640499-11.823-4.487975-15.887l-.0568225-.023c-1.7236137-.394-3.5030529-.595-5.4390031-.595-3.7044237 0-7.4437383.741-11.0584423 1.448-3.5160125.697-7.1536449 1.427-10.78031157 1.46-1.6787539-.101-3.3236137-.415-4.9246106-.742C.36884736 69.715.17844238 69.682 0 69.625v.314c.1565109.035.32398754.068.49246106.101 1.62292835.315 3.27975078.652 4.98043614.742 3.66056074-.033 7.3320872-.763 10.8580685-1.46 3.5927726-.707 7.308162-1.448 10.9916511-1.448 1.9020561 0 3.6595639.191 5.3502804.583 5.5516511 3.965 4.9016822 12.127 4.3424299 15.529-.1455452.124-.268162.258-.4037383.393-.1784424.169-.3349533.337-.5143925.471-.3239876.068-.6719003.135-1.0287851.226-.8174455.179-1.6578193.37-2.4852336.37-.5373209 0-1.0188162-.09-1.4554517-.27l-.0448599-.011c-6.2903426-.303-10.2639252-.64-16.2861059-1.236-3.122243-.313-6.12286602-1.291-9.02180683-2.233C3.78317757 81.055 1.85819315 80.438 0 80.056v.315c1.82429907.359 3.72735202.988 5.68623053 1.617 2.90990654.954 5.92049847 1.931 9.08859817 2.234zm20.2816199 29.452c-.0229284-2.224.1226168-3.358.6270405-5.031 1.0078505-3.302 4.6454829-11.306 6.1677259-12.093.4137071-.235.8393769-.337 1.2421183-.337.9290966 0 1.6677882.573 2.2609346 1.023 3.3246106 2.593 7.1416823 9.106 7.8345171 13.394.5044237 3.11.0119627 5.547-1.4325233 7.264-1.3428038 1.584-3.4920872 2.46-6.0670405 2.46-4.2527103 0-9.5242368-2.538-10.62081-6.625l-.0119626-.055zm.303053-.012c1.0736448 3.952 6.1886604 6.378 10.3297196 6.388 2.4852336 0 4.5567601-.83 5.8327726-2.346 1.3986293-1.639 1.8571962-4.02 1.3757009-7.029-.6928349-4.233-4.4431153-10.644-7.7338318-13.204-.5811838-.449-1.2311526-.965-2.0705296-.965-.3469159 0-.7157632.101-1.1075389.303-1.4115888.741-5.0033645 8.634-5.9992523 11.924-.5163863 1.628-.6390032 2.739-.6270405 4.929zm52.5178816-6.479c-.7167601 4.312-3.2907165 9.229-7.3988785 10.476-.6270405.191-1.2760125.28-1.9259813.28-3.9955141 0-7.1745795-3.367-7.3869159-7.848-.0448598-5.254 4.6115888-12.53 10.11838-13.541.3359502-.078.6599377-.101.9958879-.101 1.2211838 0 2.2499688.427 2.7434268.787 2.5181308 1.807 3.5927726 5.523 2.854081 9.947zm-3.0225545-9.712c-.1016823-.068-1.0527103-.718-2.5749533-.718-.3130218 0-.6270405.033-.9400623.078-5.3831776.999-9.9279751 8.129-9.8831153 13.26.2123365 4.301 3.2677882 7.557 7.0958256 7.557.6160747 0 1.2311526-.09 1.8362616-.281 3.9955141-1.201 6.4927103-5.995 7.1855452-10.229.7167601-4.3-.2910903-7.916-2.7195015-9.667zM5.38317757 125.103c2.1941433-6.748 1.20922118-12.239-2.99962617-16.786C1.74654206 107.666.92909657 107.094 0 106.599v.337c.83838006.45 1.57806854.977 2.16024922 1.595 4.13009346 4.457 5.09208723 9.836 2.94380062 16.471-.87327102 2.672-2.5071651 5.143-4.108162 7.523C.6599377 133.041.32398754 133.536 0 134.052v.551c.40274143-.641.82841122-1.281 1.24211838-1.909 1.60099688-2.393 3.26878505-4.885 4.1410592-7.591zM219.384424 161.752c.145545 2.01-.817446 4.39-2.562991 6.378-1.723614 1.931-3.883863 3.131-5.786916 3.211-.066791 0-.145545.011-.235265.011-1.387663 0-2.506168-.539-3.313645-1.573-1.51028-1.941-1.577071-5.243-.972959-7.645.391776-2.526 1.175327-4.324 2.40648-5.48 1.119501-1.089 2.496199-1.65 3.984548-1.65 2.910903 0 6.178692 2.358 6.480748 6.748zm-.291091.022c-.301059-4.211-3.413333-6.468-6.189657-6.468-1.399626 0-2.708536.54-3.771215 1.562-1.175327 1.122-1.936947 2.863-2.31676 5.322-.594143 2.346-.537321 5.546.906168 7.399.749657.965 1.790405 1.471 3.077383 1.471.077757 0 .157508-.011.224299-.011 1.824299-.09 3.906792-1.247 5.57458-3.122 1.700685-1.908 2.640748-4.21 2.495202-6.153zM134.406978 161v-.023c-.04486-1.044.368848-1.977 1.130467-2.538l.055826-.021c.47053-.125.9281-.169 1.409595-.169 1.366729 0 2.608847.415 3.92972.864 1.051713.36 2.148286.73 3.290716.865.503427.045 1.051714.078 1.73458.078.436635 0 .884236-.01 1.320872-.022.459564-.011.906168-.023 1.342804-.023.895202 0 2.048598.035 3.190031.337 2.239003.596 3.727352 2.044 4.286604 4.2 1.098567 4.187-1.46542 10.24-4.554766 13.26-1.432524 1.414-2.753396 2.1-3.995514 2.1-2.87701 0-4.634517-3.616-6.190654-6.828-.492461-.987-.940063-1.93-1.387664-2.672-.638006-1.044-1.353769-2.031-2.036635-2.986-1.477384-2.089-2.87701-4.054-3.525982-6.422zm.301059-.056c.616075 2.313 2.003739 4.255 3.471153 6.309.681869.955 1.387664 1.944 2.036636 3.009.458567.742.91813 1.685 1.399626 2.684 1.522243 3.121 3.245856 6.67 5.932461 6.67 1.152399 0 2.428411-.686 3.794143-2.022 3.022555-2.964 5.551651-8.88 4.466044-12.968-.537321-2.077-1.924985-3.413-4.086231-3.986-1.096573-.292-2.22704-.325-3.100311-.325-.436636 0-.88324.011-1.319876.022-.459564.011-.896199.023-1.3438.023-.694829 0-1.254081-.023-1.768474-.09-1.186293-.135-2.282866-.506-3.357508-.865-1.287975-.438-2.519127-.853-3.829034-.853-.458567 0-.88324.045-1.30891.146-.6719.505-1.018816 1.313-.985919 2.246zm-96.0697815 26.845c.2681619-.954.8284112-1.774 1.6907165-2.425 2.6856074-2.066 7.6670405-2.2 10.3416822-2.29h.0677882c.1674766-.011.3249844-.011.4814953-.011 3.0554517 0 7.0180685.876 8.976947 3.289 1.1304673 1.392 1.4873521 3.145 1.0626792 5.211-.5592524 2.705-2.9438007 4.131-6.9064175 4.131-3.7034268 0-7.7896573-1.235-9.6149533-1.975l-.3010591-.113c-2.3297197-.921-6.660187-2.65-5.7988785-5.817zm5.9095327 5.536l.2910903.123c1.825296.719 5.8437383 1.955 9.5142679 1.955 3.8509657 0 6.0790031-1.314 6.6153271-3.897.4027415-1.976.0787539-3.638-1.0068536-4.963-1.8920872-2.347-5.742056-3.177-8.7416822-3.177-.1565109 0-.3140187 0-.4715265.012h-.077757c-2.6297819.078-7.5663551.224-10.1632399 2.222-.8054828.618-1.3428037 1.381-1.5780685 2.257-.7945171 2.919 3.3684735 4.57 5.6184424 5.468zM230.589408 13.586c-1.119501 2.762-2.282866 5.636-2.921869 8.589-.559252 2.572-2.260935 5.02-4.207851 6.086-1.377694.753-2.810218.854-4.275638.315-6.057072-2.257-11.708411-7.995-13.847726-10.364-.356885-.382-.692835-.775-1.039751-1.167-2.36162-2.639-4.790031-5.357-8.148536-7.176-2.89894-1.628-6.985171-1.751-13.969345-1.414l-.38081.022c-3.626667.18-7.744798.381-9.11053-1.403-.62704-.831-.6719-2.055-.145545-3.739.357881-1.123 1.006853-2.224 1.801371-3.335h-1.096574c-.660934 1-1.220187 2.009-1.55514 3.065-.628037 1.988-.538318 3.47.290094 4.547 1.656822 2.156 5.831775 1.955 9.861183 1.752l.38081-.011c6.816698-.325 10.779315-.224 13.498817 1.303 3.222928 1.751 5.607476 4.412 7.891339 6.983.357882.393.704798.787 1.062679 1.18 2.184175 2.413 7.959128 8.263 14.204611 10.588.704797.269 1.421558.392 2.138318.392.983925 0 1.946916-.247 2.876012-.752 2.194143-1.213 4.018442-3.817 4.656449-6.681.62704-2.885 1.768473-5.703 2.865046-8.443 1.086605-2.683 2.217072-5.457 2.87701-8.342.424673-1.819.828411-3.683 1.220187-5.48.021931-.022.021931-.067.033894-.101h-.918131c-.391776 1.763-.782555 3.593-1.209221 5.378-.659938 2.808-1.757508 5.547-2.831153 8.208zM217.313894.36c.47053-.045.940062-.18 1.376698-.36h-3.984548c.783551.315 1.645856.461 2.60785.36zm75.262804 10.419c-1.220187 2.268-2.485234 4.626-3.190031 7.713-.8962 3.852.648972 7.804 2.149283 11.644.771589 1.965 1.487352 3.84 1.858193 5.614.951028 4.547.234268 8.197-.493458 12.07-.088722.405-.168473.808-.24623 1.225-.537321 2.874-.08972 5.445 1.298941 7.443 1.364735 1.954 3.614704 3.256 6.503676 3.728.525358.101 1.073645.146 1.610965.146 2.943801 0 5.282493-1.37 7.757757-2.83 2.215078-1.291 4.52187-2.649 7.476636-3.143.570218-.09 1.152399-.135 1.700685-.135v-.898c-.593146 0-1.21919.045-1.858193.157-3.111277.506-5.483863 1.908-7.778691 3.245-2.36162 1.403-4.599627 2.706-7.298194 2.706-.481495 0-.973956-.045-1.477383-.123-2.629782-.45-4.67838-1.618-5.899564-3.369-1.252087-1.796-1.655825-4.132-1.151402-6.759.065795-.404.155514-.832.234268-1.235.76162-3.953 1.488349-7.692.503427-12.407-.391776-1.852-1.12947-3.762-1.914019-5.772-1.454454-3.705-2.931838-7.523-2.115389-11.104.693832-2.976 1.924985-5.278 3.111277-7.49 1.768474-3.278 3.436262-6.399 3.12324-11.205h-.894205c.301059 4.593-1.310904 7.602-3.011589 10.779zm-43.239876-7.86c1.007851 1.303 2.037633 2.662 3.157134 3.919 3.033521 3.436 6.816698 5.423 10.477259 7.343 2.383551 1.246 4.63352 2.414 6.446854 3.908 3.636635 2.975 5.495825 5.895 4.286604 12.013-.873271 4.38-2.383552 10.308-3.849969 13.677-1.130467 2.593-2.920872 4.547-4.656449 6.444-3.123239 3.402-6.078006 6.635-4.757134 12.968.604113 2.898 1.790405 5.951 2.943801 8.904.749657 1.91 1.522243 3.875 2.137321 5.817.772586 2.403 1.254081 4.761 1.746542 7.063.101682.527.212336 1.055.33595 1.571.71676 3.358 2.966729 5.008 6.861558 5.008 1.242118 0 2.663676-.157 4.565732-.505 2.519128-.45 4.747165-1.067 6.895452-1.662 2.530093-.696 4.925607-1.359 7.398878-1.629 1.21919-.123 2.440374-.201 3.760249-.201 3.516013 0 6.973209.471 10.991651 1.011 1.355764.19 2.765359.358 4.242742.538 2.440374.303 4.67838.595 6.682118.887v-.909c-1.98081-.281-4.16299-.573-6.581433-.853-1.466417-.181-2.877009-.372-4.230779-.551-4.029408-.55-7.522492-1.011-11.104299-1.011-1.342803 0-2.606853.057-3.860934.203-2.552025.269-4.970468.943-7.532461 1.651-2.138318.583-4.343427 1.2-6.806729 1.65-1.868162.337-3.233894.471-4.420187.471-3.45919 0-5.362243-1.358-5.989284-4.289-.122616-.505-.223302-1.033-.33595-1.571-.480498-2.314-.995888-4.705-1.768473-7.141-.625047-1.977-1.397633-3.953-2.149284-5.873-1.197258-3.043-2.327726-5.928-2.909906-8.747-1.21919-5.894 1.455451-8.825 4.55676-12.194 1.779439-1.953 3.614704-3.963 4.800997-6.691 1.489345-3.436 3.03352-9.432 3.907788-13.856 1.296947-6.534-.807477-9.768-4.589658-12.879-1.892087-1.549-4.186915-2.75-6.604361-4.019-3.593769-1.887-7.298193-3.829-10.219065-7.141-1.09757-1.235-2.126355-2.583-3.12324-3.874-.604112-.786-1.220187-1.583-1.847228-2.369h-1.164361c.04486.056.078754.101.112648.146.749657.909 1.488349 1.853 2.193146 2.773zm52.831901 1.236c-.043863 1.223-.088723 2.38-.213334 3.065-.390778 2.211-1.197258 3.885-2.036635 5.67-1.409595 2.998-2.877009 6.075-2.674642 11.913l.010966.078c.447601 1.393.827414 3.122 1.231153 4.952 1.254081 5.715 2.675638 12.182 7.030031 13.473.50243.158 1.12947.236 1.84623.236.805483 0 1.533209-.1 1.902056-.156 2.709533-.438 4.735203-1.899 6.895452-3.447.918131-.652 1.847227-1.314 2.843115-1.909v-.685c-1.130467.639-2.159252 1.381-3.178068 2.111-2.104424 1.493-4.086231 2.919-6.661184 3.334-.33595.056-1.040748.158-1.801371.158-.659937 0-1.21919-.079-1.689719-.225-3.996511-1.179-5.373209-7.467-6.604362-13.014-.403738-1.84-.783551-3.57-1.231152-4.974-.189409-5.67 1.231152-8.668 2.619813-11.575.861308-1.831 1.678754-3.537 2.081495-5.828.133583-.729.178442-1.909.223302-3.155.078754-1.539.13458-3.278.38081-3.907l.010966-.068V0h-.59215v.101c-.258193.763-.314018 2.358-.392772 4.054zm-38.100935 3.087c2.349657.954 8.181433 3.223 11.236885 3.661.516386.078 1.00785.111 1.500311.111 2.497197 0 4.656449-.987 5.921496-2.705 1.309906-1.752 1.622928-4.121.873271-6.647-.088723-.303-.279128-.584-.459564-.864-.133583-.214-.268162-.405-.345919-.608-.022928-.055-.067788-.123-.090717-.19h-.313021c.044859.112.077757.213.122616.315.112648.224.246231.438.38081.65.17944.271.335951.528.414704.787.727726 2.436.436636 4.693-.817445 6.378-1.230156 1.649-3.256822 2.582-5.686231 2.582-.481495 0-.961993-.035-1.46542-.101-3.011589-.45-8.809471-2.695-11.160125-3.638-3.145171-1.269-6.648224-3.717-9.312897-6.973h-.38081c2.720499 3.402 6.346168 5.939 9.582056 7.242zm48.589159 5.648c1.230156 1.022 3.75028 1.818 6.346168 2.11v-.292c-2.708536-.313-5.116012-1.19-6.155763-2.043-3.873894-3.133-4.880748-8.14-4.478006-12.665h-.302056c-.402742 4.593.638006 9.701 4.589657 12.89zm3.245857-11.397c.481495 1.416 1.723613 2.37 3.100311 2.381v-.292c-1.253084-.011-2.384548-.887-2.809221-2.167-.122617-.483-.167477-.943-.157508-1.415h-.301059c-.011963.494.032897.988.167477 1.493zm-81.172337 17.246c1.376698-4.457 3.089346-10.027 6.402991-12.901.74866-.639 1.544174-.965 2.383551-.965 2.943801 0 5.630405 4.031 7.778692 7.276.794517 1.19 1.466417 2.212 2.026667 2.83 1.622928 1.347 3.436261 2.413 5.170841 3.447 4.119127 2.424 8.003987 4.715 8.943053 10.216.71676 4.245-.582181 9.006-1.364736 10.925-1.176324 2.886-3.235887 5.11-5.204735 7.277-1.981807 2.156-3.84 4.176-4.948536 6.793-1.934953 4.603-1.12947 9.78-.356884 14.765.167476 1.134.33595 2.201.469532 3.267.280125 2.245.403739 4.738-.929096 6.254-.783552.898-2.003738 1.336-3.626667 1.336h-.156511c-1.957881-.023-4.08623-.37-6.895451-1.1-1.129471-.292-2.260935-.618-3.357508-.943-1.01782-.292-1.969844-.573-2.931838-.82-.974953-.258-1.936947-.494-2.921869-.753-4.444113-1.122-9.054704-2.29-13.218692-4.244-3.84-1.818-8.551277-5.715-9.828287-10.004-1.365732-4.637.918131-9.364 5.797882-12.048 4.018442-2.2 7.577321-6.388 10.902928-12.8 1.578069-3.065 2.529097-6.467 3.436262-9.768.469533-1.718.97296-3.492 1.545171-5.198.289097-.865.581184-1.831.88324-2.842zm.582181.17c-.314019 1.032-.615078 1.975-.906168 2.862-.559253 1.696-1.063676 3.459-1.522243 5.154-.930094 3.335-1.870156 6.771-3.481122 9.892-3.381433 6.524-7.029034 10.801-11.149159 13.058-4.63352 2.549-6.793769 7.006-5.517757 11.351 1.164362 3.942 5.663303 7.815 9.513271 9.623 4.108162 1.931 8.685857 3.099 13.108038 4.211.984922.258 1.958878.505 2.921869.752.972959.269 1.93595.539 2.954766.831 1.084611.314 2.215078.651 3.346542.932 2.741433.718 4.834891 1.055 6.74891 1.089h.145545c1.467415 0 2.508162-.371 3.179066-1.134 1.175327-1.348 1.040747-3.784.794517-5.782-.145545-1.056-.313022-2.134-.469533-3.256-.784548-5.065-1.611963-10.319.391776-15.08 1.152398-2.729 3.133208-4.885 5.05919-6.984 1.93595-2.111 3.950654-4.312 5.092087-7.085.885234-2.167 1.970841-6.793 1.331838-10.599-.895202-5.222-4.667414-7.444-8.662928-9.814-1.768474-1.044-3.592773-2.121-5.260561-3.503l-.032897-.033c-.594144-.651-1.286978-1.696-2.104424-2.92-1.958878-2.952-4.657445-7.006-7.276262-7.006-.693831 0-1.342803.27-1.991775.831-3.190032 2.762-4.868785 8.23-6.212586 12.61zm5.641371 9.195c-1.881122-3.267-1.176324-8.095.280124-11.195.659938-1.403 1.711651-3.076 2.954767-3.076.368847 0 .727726.157 1.073645.449 1.063676.909 1.768473 3.189 2.305794 5.008.224299.707.42567 1.381.62704 1.864.08972.236.190405.493.291091.763.571215 1.471 1.298941 3.313 2.071526 4.289.940063 1.18 2.159253 1.752 3.346542 2.325.961994.438 1.947913.898 2.775327 1.673 1.690717 1.571 2.216075 3.694 1.466418 5.984-.884237 2.706-3.425296 4.963-5.887601 5.244l-.010966.011v-.157l-.021932.157c-.225296-.011-.481495-.011-.682866-.067-1.590031-.652-1.903053-2.235-2.22704-3.784-.101682-.528-.213333-1.078-.358879-1.573-.817445-2.402-2.473271-3.447-4.242741-4.536-.29109-.179-.570218-.358-.850343-.539-1.063676-.684-2.148286-1.515-2.909906-2.84zm.257196-.146c.738692 1.268 1.791402 2.055 2.809221 2.74.29109.179.571215.359.861309.528 1.713644 1.077 3.516012 2.2 4.343426 4.703.17944.506.281122 1.067.391776 1.607.314019 1.538.594143 2.975 2.026667 3.548.145545.045.379813.045.58218.045 2.372586-.271 4.790032-2.437 5.630405-5.042.424673-1.258.771589-3.649-1.376697-5.659-.795514-.73-1.724611-1.179-2.698567-1.64-1.21919-.572-2.473271-1.167-3.447228-2.391-.817445-1.011-1.511277-2.807-2.126355-4.378-.100685-.259-.202368-.506-.303053-.753-.190405-.494-.401744-1.179-.615078-1.886-.548286-1.786-1.209221-4.02-2.217071-4.873-.30106-.247-.581184-.371-.88324-.371-1.153396 0-2.172212 1.819-2.686605 2.909-1.421557 3.02-2.126355 7.724-.29109 10.913zm39.488598 16.349c-.83838-2.448-.313022-5.301 1.354766-7.288l.033895-.034c.873271-.528 1.992772-.483 2.887975.079l.032897.045c.974953 1.291 1.019813 3.492.123614 5.311-.715764 1.426-1.835265 2.245-3.066418 2.245-.42567 0-.850343-.089-1.286978-.28l-.067788-.023-.011963-.055zm.258193-.169c.368848.146.739689.235 1.108536.235 1.118505 0 2.137321-.763 2.786293-2.088.861308-1.729.840374-3.762-.054829-4.973-.784548-.506-1.768473-.54-2.530093-.08-1.5681 1.887-2.082492 4.592-1.309907 6.906zm-46.753894 2.952c1.634891-1.055 4.5119-1.774 6.996137-1.774 1.197259 0 2.260935.158 3.167103.473 1.209221.415 2.082492 1.11 2.573956 2.043 2.283863 4.188 1.209222 9.454.280125 14.103-.111651.516-.212336 1.009-.313022 1.503-.055825.316-.122617.686-.178442 1.068-.29109 1.875-.659938 4.187-2.071527 5.242-.492461.372-1.073644.551-1.735576.551-1.93595 0-4.141059-1.595-5.327352-2.47-.290093-.213-.593146-.427-.918131-.651-3.077383-2.201-6.916386-4.941-7.543427-8.635-.76162-4.423 1.275016-9.027 5.070156-11.453zm.167477.247c-3.692461 2.359-5.685234 6.849-4.958505 11.151.616075 3.57 4.411215 6.265 7.443738 8.454.314019.224.627041.438.906169.651 1.164361.842 3.325607 2.403 5.159875 2.403.594143 0 1.120498-.168 1.5681-.494 1.297944-.977 1.656822-3.234 1.947913-5.03.055825-.393.110654-.763.178442-1.1.100685-.483.201371-.989.303053-1.494.940062-4.603 1.991776-9.813-.235265-13.912-.459564-.864-1.286978-1.493-2.407477-1.886-.873271-.314-1.902056-.472-3.077383-.472-2.439377 0-5.238629.719-6.82866 1.729zm78.833645 21.659c-1.981807.102-3.96162.506-5.876636.898-1.991776.405-4.051339.832-6.098941.888-2.95676-.259-5.575576-1.55-8.093707-2.785-2.887975-1.414-5.864673-2.897-9.424548-2.897-2.283863 0-4.599626.607-7.08486 1.853l-.034891.022-.020934.035c-.526356.886-.458567 1.92-.38081 2.929l.032897.405.033894.045c.201371.191.324984.471.436635.752.067788.146.111651.27.17944.393l.010965.023c3.637633 4.39 8.999876 4.659 14.170717 4.917 3.234891.158 6.570467.326 9.44648 1.494 3.267788 1.494 7.030031 2.313 10.611838 2.313 1.040747 0 2.048598-.056 3.021557-.191.480499-.067 1.006854-.101 1.545172-.101 1.073644 0 2.193146.135 3.323613.359v-.292c-1.130467-.224-2.239003-.37-3.323613-.37-.549284 0-1.085608.033-1.590032.112-.952025.123-1.947912.191-2.976697.191-3.536947 0-7.254331-.819-10.500187-2.291-2.920873-1.19-6.290343-1.358-9.548162-1.527-5.103053-.246-10.386542-.516-13.923489-4.795-.067789-.1-.122617-.224-.168474-.336-.122617-.291-.256199-.583-.469533-.831l-.021931-.28c-.055826-.954-.123614-1.932.323987-2.728 2.417446-1.202 4.679377-1.786 6.906418-1.786 3.481121 0 6.446853 1.437 9.290966 2.841 2.541059 1.268 5.192772 2.559 8.227289 2.83 2.081496-.057 4.152025-.495 6.155764-.91 1.914018-.383 3.872897-.786 5.831775-.876 1.946916-.09 3.894829.269 5.785919.639v-.314c-1.89109-.358-3.839003-.707-5.797881-.629zm-10.476262 34.111c-.593146-.066-1.18729-.112-1.76947-.112-5.204736 0-8.741683 3.055-12.469035 6.311l-.413707.358c-.906168.775-1.836262 1.483-2.719501 2.179-1.992773 1.539-4.063303 3.132-5.798879 5.434-2.753396 3.649-2.595888 8.309-2.450343 12.845.066792 1.786.110655 3.459 0 5.098l-.011962.022.011962.023c.503427 2.391 1.21919 4.177 2.171215 5.423 1.220187 1.617 2.954767 2.729 4.633521 3.784 1.590031 1.011 3.223925 2.043 4.42218 3.514.571215.697 1.085608 1.449 1.622929 2.235 1.017819 1.515 2.058567 3.054 3.603738 4.244 2.584922 1.965 6.324237 3.143 9.961869 3.143 4.331464 0 7.913271-1.583 9.816324-4.333 1.432523-2.055 1.622928-4.592 1.824299-7.276.08972-1.19.179439-2.414.392773-3.593.514392-2.852 1.902056-5.39 3.44623-7.793v-.55c-1.667788 2.549-3.190031 5.233-3.738317 8.275-.212337 1.213-.314019 2.437-.391776 3.638-.201371 2.65-.391776 5.131-1.768474 7.13-1.858193 2.661-5.35028 4.2-9.581059 4.2-3.581807 0-7.242368-1.157-9.772461-3.088-1.521246-1.146-2.551028-2.673-3.547913-4.166-.514392-.763-1.05271-1.549-1.633894-2.257-1.242118-1.504-2.887975-2.559-4.499938-3.57-1.645856-1.044-3.36947-2.134-4.555763-3.717-.918131-1.212-1.6-2.941-2.104423-5.288.112648-1.651.044859-3.414 0-5.109-.155514-4.468-.30106-9.095 2.384548-12.653 1.713645-2.269 3.672523-3.784 5.742056-5.379.895202-.685 1.825296-1.404 2.731464-2.189l.413707-.36c3.694455-3.2 7.186542-6.243 12.27863-6.243.571215 0 1.153395.045 1.735576.124.648972.078 1.354766.168 2.081495.247 4.555763.55 10.49919 1.246 14.226542 3.267v-.337c-3.805109-1.987-9.658816-2.684-14.191651-3.233-.728723-.079-1.422554-.158-2.082492-.248zm-46.866542 34.617c3.257819 7.029 1.723614 19.952-4.711277 25.005-2.07053 1.617-4.745172 2.627-7.096823 3.402-.715763.258-1.443489.482-2.172212.707-1.03975.337-2.036635.64-2.998629.988-1.522243.539-3.124237 1.078-4.656449 1.583-4.287601 1.437-8.71975 2.908-12.682367 4.907-1.969844.988-3.682492 2.223-5.338318 3.403-2.753395 1.964-5.35028 3.805-8.911153 4.613-.770591.17-1.521246.259-2.22704.259-2.886978 0-5.237632-1.415-6.457819-3.885-1.880125-3.829-.884237-9.274-.08972-13.642.190405-1.033.368847-1.998.504424-2.907.984922-6.625 3.356511-11.173 7.253333-13.924 2.125358-1.504 4.666418-2.514 8.001994-3.166.795514-.146 1.600997-.157 2.350654-.157h1.085608c.605109 0 1.265046-.011 1.925981-.112.96299-.146 1.666791-.551 2.417445-.989.459564-.258.929097-.538 1.476387-.752.852336-.349 1.758504-.449 2.630778-.561.840374-.09 1.690717-.203 2.485234-.495 1.969844-.73 3.895826-2.29 5.025296-4.076.648972-1.021 1.209221-2.335 1.792399-3.716 1.677757-3.929 3.581807-8.41 8.50542-8.095 4.891714.314 9.895078 7.287 11.886854 11.61zm-.256199.112c-1.981807-4.255-6.884486-11.128-11.640624-11.419-4.713271-.315-6.583426 4.065-8.216324 7.905-.593146 1.391-1.152398 2.717-1.824299 3.772-1.153395 1.831-3.135202 3.436-5.160872 4.188-.839377.315-1.711651.416-2.552025.517-.861308.1-1.745545.213-2.56299.528-.526356.213-.995888.482-1.44349.74-.738691.427-1.499314.876-2.51813 1.034-.683863.09-1.355764.1-1.970841.1h-1.085608c-.738692 0-1.522243.012-2.305794.169-3.267789.641-5.775951 1.617-7.880374 3.11-3.828038 2.707-6.155763 7.186-7.128723 13.71-.123614.921-.303053 1.897-.493458 2.919-.79352 4.334-1.791402 9.735.056823 13.451 1.163364 2.37 3.424299 3.728 6.18866 3.728.683863 0 1.421558-.079 2.161246-.248 3.502056-.785 6.078006-2.615 8.797508-4.557 1.678754-1.191 3.402367-2.438 5.384174-3.437 3.983552-1.998 8.417695-3.48 12.715265-4.917 1.534206-.517 3.122243-1.056 4.655452-1.584.962991-.348 1.958878-.662 3.022554-.987.704798-.236 1.432524-.461 2.171215-.697 2.317757-.775 4.959502-1.774 6.996137-3.369 2.886979-2.279 5.026293-6.512 5.853708-11.62.783551-4.795.324984-9.668-1.21919-13.036zm-242.1971344 22.95c2.4842367-.393 5.4180685-.594 8.2382554-.797 4.0523365-.292 7.8803739-.562 10.611838-1.314 3.3684736-.931 6.5246106-3.414 8.225296-6.489 1.3886604-2.516 1.7355763-5.188.985919-7.714-1.6338941-5.558-7.7009346-4.728-11.6964486-4.177-4.3872897.606-10.7115265 1.28-15.0549533.158-4.1310903-1.079-5.33931463-4.582-3.805109-11.016.3798131-1.628 1.0178193-3.335 1.6229283-4.984 1.3537695-3.695 2.7643614-7.513 1.790405-11.094-.2123364-.797-.5941433-1.786-.9290966-2.482C10.6447352 105.341 5.8646729 101.367 0 99.604v.944c5.50679128 1.728 9.99576324 5.502 12.5916511 10.733.3249844.629.6719003 1.561.873271 2.313.9071651 3.301-.4476012 6.984-1.7684735 10.544-.6150779 1.684-1.2640498 3.402-1.6677882 5.098-.59314638 2.537-2.42841118 10.284 4.4670405 12.081 4.4879751 1.167 10.9457944.493 15.3889097-.124 4.9146417-.685 9.4135825-.921 10.7354517 3.537.6709034 2.28.345919 4.716-.9181308 7.029-1.5900312 2.852-4.5328349 5.177-7.6899689 6.051-2.6417445.742-6.4249221 1-10.4204361 1.281-2.854081.202-5.7988785.404-8.3279751.797-3.30168224.516-6.26741433 1.426-9.43551402 2.392C2.585919 162.661 1.2989408 163.043 0 163.403v.931c1.39962617-.382 2.76436137-.797 4.09619938-1.201 3.12323987-.955 6.06704052-1.841 9.31289722-2.347zm-.4027415 32.438c6.9293458 3.661 11.9646106 7.365 14.9642368 11.048 3.0674143 3.774 6.616324 7.4 11.5857944 8.298 2.7643614.494 5.44.742 7.9581308.742 4.7232399 0 8.8762617-.865 12.3015577-2.594 1.9030529-.955 3.5479127-2.347 5.3393146-4.514.7277259-.898 1.4215576-1.831 2.1044237-2.752 1.4993146-2.065 3.0773832-4.199 5.1249844-5.848.3927726-.315.8064798-.664 1.254081-1.011 2.3506542-1.932 5.2824922-4.335 7.7348287-5.548 1.4105919-.695 3.07838-1.021 4.7013084-1.336 2.8092212-.538 5.708162-1.1 7.4995638-3.603 1.9588785-2.718 2.3845483-7.411 2.7195016-11.172.0897196-.898.1674766-1.729.2472274-2.481.8613084-7.063-1.8482243-10.432-4.4670405-13.688-1.4993146-1.886-2.9438006-3.671-3.7492835-6.131l-.1236137-.381c-.3239875-1.011-.6938318-2.145-1.0736448-2.931-1.0078505-2.111-2.4403739-3.165-4.2427415-3.165-2.6527103 0-5.5187539 2.335-6.8954517 3.457-1.0397508.843-2.0705296 1.595-3.1561371 2.391-.5263551.394-1.063676.787-1.6229283 1.202-4.0074766 3.01-6.5365732 7.209-8.9769471 11.273-1.331838 2.212-2.7085358 4.514-4.2866043 6.569-1.8472274 1.841-4.5677259 3.121-7.8584424 3.659-1.9698442.337-4.185919.372-6.5246106.428-1.5571339.034-3.1571339.055-4.791028.168-.9629907.078-1.9359502.169-2.8770094.281-1.487352.157-2.9099065.303-4.2756386.325-2.7872897.045-5.0920872-.471-7.2971962-.954-1.2770094-.281-2.4633022-.538-3.7163863-.696-.6609346-.078-1.3428038-.134-2.0376324-.134-1.8691589 0-3.8619315.302-6.0770094.886-1.1195015.315-2.2948286.573-3.42629282.82-3.0883489.707-6.2684112 1.437-9.06566978 2.975v.349c2.79725857-1.584 6.0221807-2.325 9.14542056-3.021 1.12947044-.27 2.30479754-.527 3.41333334-.831 2.205109-.596 4.1639875-.876 6.0102181-.876.682866 0 1.3547663.045 1.9927725.136 1.2431153.144 2.4294081.415 3.6814954.684 2.24.494 4.5677258.999 7.376947.965 1.3766978-.021 2.8092212-.179 4.3204985-.336.9290965-.102 1.8920872-.203 2.8550778-.269 1.6229284-.113 3.2229284-.146 4.7790655-.181 2.3496573-.045 4.5667289-.078 6.5704673-.415 3.3575077-.561 6.122866-1.864 8.0139563-3.772 1.6119627-2.078 2.9886605-4.38 4.3324611-6.602 2.4383801-4.043 4.9465421-8.22 8.8971963-11.196.5612461-.414 1.0975701-.808 1.6119626-1.201 1.0975701-.797 2.127352-1.549 3.1680997-2.391 1.3547663-1.111 4.1749532-3.403 6.7160124-3.403 1.6787539 0 3.0215577 1.022 3.9735826 3.011.3578816.763.726729 1.897 1.0626791 2.896l.1226168.381c.8294081 2.516 2.3396885 4.391 3.8071028 6.221 2.5629907 3.201 5.2376324 6.523 4.3982555 13.462-.0887228.753-.1684735 1.595-.2462305 2.471-.3349533 3.749-.7606231 8.387-2.6636761 11.048-1.7236137 2.391-4.5786915 2.953-7.3320872 3.48-1.6229283.327-3.3236137.641-4.7561371 1.359-2.4961993 1.225-5.44 3.65-7.8026168 5.592-.4476012.336-.8613084.685-1.2530841 1.01-2.0814953 1.673-3.6605607 3.818-5.1937695 5.895-.6599377.909-1.3647352 1.853-2.0814953 2.74-1.7585047 2.134-3.3694704 3.503-5.2276635 4.446-3.4023676 1.684-7.4995639 2.56-12.177944 2.56-2.5071651 0-5.1489096-.247-7.8913395-.741-4.8907165-.875-8.3828038-4.468-11.4272897-8.197-3.0225546-3.704-8.0817446-7.443-15.0549533-11.116-2.1492835-1.133-4.54479753-1.897-6.86155765-2.627C4.15202492 189.654 1.98180685 188.969 0 187.992v.325c1.96984424.955 4.1071651 1.64 6.1786916 2.302 2.3047975.741 4.7003115 1.493 6.8276635 2.605zm85.7829284 20.637c-.6041122-2.526-.3688474-5.03-.0099689-7.332.1455452-.921.1226169-1.897.1226169-2.84-.0328972-1.179-.0448598-2.403.2352648-3.538.4366355-1.717 1.5332087-3.435 2.5968847-5.085.413707-.64.805483-1.258 1.141433-1.853 4.264673-7.444 6.895452-15.821 9.458442-23.917.59215-1.885 1.209222-3.828 1.824299-5.725.962991-2.953 2.943801-5.671 5.876636-8.084 4.241745-3.492 9.525234-7.838 13.543676-9.05.973956-.292 1.946916-.438 2.954766-.438 1.925982 0 3.682493.539 5.373209 1.067.827414.258 1.700685.516 2.551028.707.952025.213 1.869159.314 2.709533.314 2.283863 0 4.118131-.763 5.449969-2.257 2.038629-2.279 2.811215-6.141 2.261931-11.161-.067788-.594-.167477-1.122-.280124-1.684-.111652-.573-.234268-1.179-.323988-1.897-.459564-4.043.526355-7.556 2.854081-10.184 2.529097-2.841 6.503676-4.412 11.170093-4.412 1.444486 0 2.966729.156 4.499938.448 6.65919 1.326 11.372461 6.029 12.939564 12.925.794517 3.502 1.578069 8.769.760623 13.889-1.141433 7.106-6.078006 9.947-10.756386 11.778-.223302.078-.436636.179-.682866.257-2.765359 1.079-5.384175 2.089-6.783801 5.682-.491464 1.291-.805483 2.986-1.096573 4.614l-.077757.417c-.469533 2.593-1.09757 5.524-2.194143 7.735-.503427 1.045-1.164362 1.988-1.813334 2.909-.783551 1.122-1.6 2.279-2.125358 3.603-1.937944 4.964-1.489346 10.027-1.042741 14.934.29109 3.313.605109 6.748.168473 10.139-.032897.281-.078754.572-.123614.853-1.062679 6.547-6.166729 9.803-11.091339 12.958-1.153396.74-2.339689 1.504-3.470156 2.302-5.283489 3.716-9.749533 5.805-14.472773 6.781-1.622928.337-3.447227.516-5.283489.516-1.51028 0-2.977694-.123-4.365358-.359-7.354019-1.257-20.080249-4.884-22.4986915-15.012zm.5821807-.123c2.3396888 9.78 14.7977568 13.316 22.0171958 14.551 1.354767.225 2.799253.349 4.264673.349 1.790405 0 3.581807-.169 5.171838-.506 4.633521-.954 9.021807-3.021 14.237508-6.692 1.141433-.808 2.339689-1.571 3.49109-2.313 5.049222-3.222 9.806356-6.277 10.836138-12.542.044859-.292.078753-.561.111651-.831.424673-3.334.111651-6.736-.17944-10.026-.447601-4.963-.895202-10.105 1.085608-15.191.561246-1.404 1.38866-2.594 2.194143-3.739.638006-.888 1.286978-1.819 1.768474-2.818 1.063676-2.146 1.678754-5.042 2.138317-7.58l.08972-.415c.29109-1.673.604112-3.392 1.130467-4.738 1.477384-3.83 4.354393-4.94 7.118754-6.007.223302-.09.458567-.18.682866-.269 6.491714-2.55 9.503302-5.829 10.375577-11.319.805482-5.03.033894-10.194-.749658-13.653-1.511277-6.647-6.055078-11.195-12.469034-12.463-1.511277-.292-2.978692-.438-4.388287-.438-4.510903 0-8.305046 1.493-10.733458 4.222-2.205109 2.481-3.135202 5.838-2.686604 9.69.077757.707.201371 1.301.302056 1.875.111651.561.212337 1.1.291091 1.718.581183 5.186-.257197 9.217-2.40648 11.62-1.455452 1.64-3.436262 2.471-5.898567 2.471-.8962 0-1.847228-.124-2.83215-.337-.884236-.191-1.756511-.461-2.608847-.718-1.655826-.506-3.346542-1.034-5.192773-1.034-.951028 0-1.858193.135-2.786293.405-3.895825 1.178-9.122492 5.478-13.331339 8.937-2.844112 2.346-4.758131 4.973-5.686231 7.815-.62704 1.886-1.231152 3.828-1.824299 5.715-2.56299 8.117-5.204735 16.528-9.503302 24.039-.346916.606-.739688 1.224-1.164361 1.864-1.040748 1.628-2.114393 3.289-2.5181311 4.917-.2681619 1.056-.2352648 2.191-.2233021 3.392.0099688.965.0219314 1.965-.1246106 2.919-.345919 2.268-.5821807 4.682 0 7.13zm5.8995638-2.954c-2.585919-5.871-1.466417-12.07 3.044486-17.044 1.108536-1.201 2.473271-2.132 3.805109-3.02 1.377695-.931 2.799252-1.886 3.88486-3.166.749657-.875 1.209221-1.942 1.645857-2.965.615077-1.459 1.252087-2.985 2.831152-3.951 1.309907-.798 2.932835-1.247 4.555763-1.247 1.879128 0 3.54891.606 4.72324 1.673.38081.359.671901.707.940063 1.033.504423.595.929096 1.112 1.836261 1.572.627041.326 1.30891.539 1.991776.753.739688.224 1.477383.471 2.172212.853 2.495202 1.369 5.674268 3.211 8.136573 5.344 4.924611 4.301 6.782804 10.038 4.846854 14.967-.828412 2.123-2.305795 3.987-4.38729 5.603-1.277009.977-2.508162 1.998-3.694455 2.987-4.791028 3.985-9.323863 7.759-16.374829 8.421-.559252.045-1.141433.067-1.712648.067-7.656074 0-15.167601-4.885-18.244984-11.88zm.280125-.111c3.022554 6.882 10.40947 11.7 17.964859 11.7.571215 0 1.130468-.023 1.68972-.091 6.96324-.639 11.451215-4.378 16.207352-8.331 1.186293-.999 2.429408-2.032 3.694455-3.009 2.048598-1.572 3.481121-3.402 4.286604-5.468 1.903053-4.805.077757-10.408-4.757134-14.63-2.439377-2.111-5.595514-3.953-8.080747-5.311-.659938-.371-1.399626-.595-2.127352-.819-.671901-.214-1.376698-.427-2.02567-.764-.961994-.506-1.422555-1.067-1.924985-1.662-.258193-.314-.549283-.651-.91813-1.011-1.108536-1.021-2.720499-1.583-4.52187-1.583-1.567102 0-3.135202.428-4.410218 1.201-1.477383.91-2.070529 2.325-2.708535 3.819-.448599 1.044-.895203 2.132-1.690717 3.042-1.107539 1.291-2.551028 2.268-3.950654 3.211-1.298941.876-2.663676 1.797-3.739315 2.976-4.443115 4.872-5.517757 10.97-2.987663 16.73zm7.645109-2.392c-.47053-2.515.682866-4.918 3.145171-6.568 1.645857-1.101 4.622555-1.842 7.409844-1.842 4.610592 0 7.464673 1.887 7.610218 5.042.022929.572-.021931 1.156-.122616 1.706-.862306 4.671-5.831776 7.456-10.151278 7.456-.683863 0-1.332835-.068-1.958878-.202-3.090343-.674-5.418069-2.863-5.932461-5.592zm.302056-.056c.480498 2.605 2.730467 4.715 5.685233 5.356.605109.124 1.242119.202 1.90405.202 4.107165 0 9.042742-2.751 9.849221-7.209.111652-.538.145546-1.089.123614-1.65-.202367-4.401-5.641371-4.75-7.309159-4.75-2.743427 0-5.653333.719-7.243364 1.786-2.360623 1.583-3.469159 3.873-3.009595 6.265zM40.138567 311.579c-2.7992524-.741-4.9595016-1.291-7.2642991-1.594-.3239875-.045-.6270405-.079-.9181308-.124-1.2201869-.191-2.2828661-.359-3.4472274 0-3.2129595.977-4.7122742 4.21-4.2756387 9.039h.9061683c-.2691589-3.088.0897196-7.107 3.6266666-8.185.9849221-.292 1.8910904-.157 3.044486.022.3130218.045.6270405.101.9400623.146 2.2609346.281 4.2975701.809 7.1536449 1.572 3.8499688 1.022 7.9242367 2.763 11.8419937 4.446 1.6448598.697 3.2558256 1.392 4.8009969 1.999h2.5300935c-2.1831776-.774-4.5338318-1.774-6.9742056-2.819-3.96162-1.695-8.0578193-3.447-11.9646106-4.502zm-23.1815577 1.325c.0338941-1.201.0568225-2.346 0-3.469-.0109657-.394-.0328972-.797-.0558255-1.19-.2013707-3.593-.3917757-6.984 1.1982555-8.725.7277258-.797 1.7794392-1.223 3.2119626-1.279 2.7085358-.09 5.4619314 1.425 8.4067289 3.065 1.790405.999 3.6376324 2.021 5.674268 2.818 3.1232398 1.213 6.6711526 2.021 9.7604984 2.179.3469159.033.6938318.044 1.0178193.044 4.981433 0 9.1224922-1.954 10.0745171-4.761.3578817-1.055.2013708-1.875.1116511-2.425l-.0438629-.169c-.2691589-1.548-.9749533-3.02-1.7016822-4.58-.8842368-1.819-1.8023676-3.728-2.1273521-5.996-.8832398-6.086 1.8362617-9.813 4.2766356-11.868 4.4441121-3.773 9.9828037-4.436 16.77757-4.94l.8732711-.057c6.8954517-.494 13.4210592-.966 16.8004984-6.793 2.7533957-4.727 6.0002492-10.925 6.5933957-16.943.4585669-4.682-1.4773832-7.837-3.5140187-11.183-.8623053-1.392-1.747539-2.863-2.4852337-4.469l-.0229283-.045-.0328972-.045c-1.2760125-1.235-2.3067913-2.987-3.4033645-4.839-2.0147041-3.436-4.0961994-6.984-7.9920249-7.68-.3249845-.056-.6599377-.079-1.0178193-.079-1.522243 0-2.9547664.472-3.5040499.686-1.3438006.504-2.6417445 1.19-4.0184424 1.897-1.8352648.965-3.7492834 1.953-5.7410592 2.492-1.6578193.427-3.2917133.686-5.0262928.943-1.6677881.236-3.3914019.495-5.171838.944-3.2907165.82-6.4797508 1.751-9.5700934 2.627-6.2674144 1.796-12.1889097 3.504-19.0395016 4.559-6.9502804 1.044-12.1221184 2.133-15.524486 6.423-1.5780685 1.975-2.5520249 4.031-3.51401868 6.017-1.03077882 2.179-2.10442368 4.413-3.9506542 6.569-.72872275.82-1.46741434 1.595-2.1951402 2.335C1.3647352 255.719.64897197 256.461 0 257.224v.933c.77258567-.955 1.62292835-1.854 2.51813084-2.774.71576324-.753 1.46641745-1.528 2.1941433-2.369 1.9140187-2.201 2.99962617-4.481 4.0623053-6.692.93009346-1.954 1.90305296-3.986 3.42629286-5.918 3.2677881-4.109 8.3379439-5.164 15.1546417-6.197 6.8954517-1.055 13.1080374-2.841 19.1182555-4.57 3.0773831-.876 6.2684112-1.797 9.5591277-2.616 1.7455452-.449 3.4472274-.697 5.0920872-.944 1.7575078-.257 3.4143302-.504 5.094081-.954 2.0695327-.55 4.0064798-1.56 5.8866044-2.538 1.3547663-.707 2.6307788-1.369 3.9406853-1.875.4017446-.134 1.8242991-.639 3.2907166-.639.3130218 0 .6270404.022.9181308.067 3.614704.662 5.6403738 4.087 7.5882866 7.399 1.0965732 1.876 2.1373209 3.65 3.4482243 4.929.7376947 1.628 1.6328972 3.077 2.4952025 4.491 1.9818068 3.245 3.8609346 6.322 3.4252959 10.802-.5821806 5.895-3.7951401 12.026-6.5146417 16.707-3.2239252 5.535-9.3128972 5.973-16.3309657 6.49l-.8732711.056c-6.9054205.506-12.5358255 1.19-17.1135202 5.075-2.5520249 2.156-5.4061059 6.052-4.4780062 12.407.3359501 2.37 1.2650467 4.312 2.1602492 6.187.7396884 1.516 1.4115888 2.942 1.6677881 4.413l.0338941.169c.0907165.516.2242991 1.234-.0897196 2.121-.8623053 2.56-4.7680997 4.368-9.5033022 4.368-.3130218 0-.6479751-.022-.9839252-.045-3.0225545-.157-6.5146418-.954-9.5810592-2.144-1.9937695-.787-3.84-1.797-5.6084735-2.785-2.9996262-1.673-5.8317757-3.245-8.7087851-3.133-1.6.056-2.7972585.551-3.6256698 1.46-1.7694704 1.932-1.5790654 5.445-1.3537694 9.163.0219314.415.0438629.808.0548286 1.211.0558256 1.09.0338941 2.213 0 3.402-.0219314 1.225-.0548286 2.505.0109658 3.751.033894.763.1006853 1.515.1904049 2.268h.6051091c-.0907165-.753-.1684735-1.516-.2013707-2.291-.0558256-1.235-.034891-2.481-.0119627-3.705zM212.31053 242.538c-.224299-2.245-.526356-8.006 1.656822-12.542 1.376698-2.885 6.167726-8.252 10.431402-8.252 1.432523 0 2.641744.606 3.604735 1.807 3.727352 4.637 2.931838 12.879-2.305794 23.827-1.454455 3.02-3.056449 4.861-4.791028 5.478-.435639.158-.884237.236-1.342804.236-.85134 0-1.746542-.281-2.641745-.853-3.480124-2.189-4.29757-6.58-4.611588-9.701zm.302056-.023c.303053 3.054 1.096573 7.355 4.46704 9.477 1.286978.808 2.551028 1.01 3.737321.584 1.645857-.584 3.191028-2.38 4.612586-5.344 5.181807-10.824 5.987289-18.954 2.350654-23.49-.918131-1.134-2.049595-1.706-3.381433-1.706-4.073271 0-8.853333 5.344-10.174206 8.095-2.138317 4.468-1.847227 10.15-1.611962 12.384zm-21.927477-19.963c.862305 2.728-.895202 5.67-2.886978 7.253l-.033894.023-.055826.011h-.24623c-.33595 0-.582181-.023-.750655-.079l-.032897-.01-.021931-.024c-.661932-.65-1.321869-1.941-.727726-2.829.492461-2.111 2.439377-4.39 4.600623-4.446l.110654-.012.04486.113zm-.268162.202c-1.958878.135-3.772212 2.313-4.196885 4.244l-.022928.045c-.503427.73.078754 1.864.638006 2.436.112648.035.291091.068.627041.068h.190405c1.869159-1.516 3.514018-4.255 2.764361-6.793zM0 282.667v-2.762c.24623053-1.045.72772586-1.797 1.17433022-2.492.14554517-.226.29109034-.45.4366355-.686 1.19825546-2.088 1.87015578-4.57 2.52012462-6.972.345919-1.292.7047975-2.605 1.1294704-3.851.95102805-2.707 2.8869782-5.278 4.7352025-7.782 1.23115266-1.65 2.39551406-3.211 3.24585666-4.738.4366356-.943.8174455-1.886 1.1862929-2.773 1.331838-3.223 2.4852336-5.985 5.1937694-8.062 2.4842368-1.897 6.4807477-2.133 10.3426792-2.347.9619937-.045 1.9588785-.101 2.9208722-.191 4.4879751-.37 9.4355141-2.054 14.2375078-3.694 4.6115888-1.582 8.9659813-3.054 12.938567-3.469.8623053-.101 1.9588785-.146 3.157134-.146 1.3657321 0 2.7643613.068 3.6705296.168 4.3773208.506 11.2388785 3.583 15.7497819 6.367 2.5400623 1.572 4.185919 4.098 4.757134 7.309.8284112 4.514-.5941434 9.903-3.5818069 13.732-1.8133333 2.336-4.5218692 3.729-8.2721495 4.267-2.585919.381-5.3273521.381-8.0029907.381-5.5067913 0-10.7115265.012-14.6412461 2.987-1.1294704.865-1.868162 1.741-2.663676 2.672l-.1006854.146c-3.995514 4.727-6.8605607 9.96-7.6550778 13.979-.2691589 1.359-.3479128 2.752-.4256698 4.099-.1894081 3.459-.3698443 6.467-3.7273521 6.579h-.0229283l-.0219315-.01c-4.3982554-1.157-6.9512772-4.121-9.4245483-6.985-3.0225545-3.525-5.8766355-6.849-11.8649221-6.849-.6041121 0-1.2431152.044-1.9030529.112-1.9359502.203-3.8280374.82-5.6633022 1.416-1.59003117.528-3.10031154 1.009-4.57769472 1.235-.48149532.066-.92909657.101-1.3328349.101-1.73457943 0-2.9438006-.596-3.51401868-1.741zm.14554517-.382c.48149533 1.19 1.63389408 1.831 3.36847352 1.831.3917757 0 .8284112-.045 1.27700932-.101 1.46542056-.214 2.96573208-.708 4.5447975-1.225 1.84623056-.594 3.76024926-1.223 5.73009346-1.437.6609346-.067 1.3089097-.1 1.9249844-.1 6.1228661 0 9.0327726 3.368 12.0882243 6.949 2.4403739 2.819 4.9585047 5.749 9.2461059 6.895 3.0893458-.136 3.2458567-2.852 3.425296-6.299.0887227-1.36.1565109-2.774.4366355-4.155.8054829-4.064 3.6924611-9.341 7.7109034-14.114l.112648-.134c.7606231-.898 1.5451714-1.831 2.7085358-2.717 4.0074767-3.032 9.5033022-3.044 14.8196885-3.044 2.663676 0 5.3951402-.01 7.9581309-.37 3.6715264-.539 6.313271-1.897 8.0937071-4.177 2.931838-3.761 4.3095327-9.061 3.5249844-13.496-.5592523-3.11-2.1602492-5.569-4.6454828-7.096-4.4770094-2.762-11.2827415-5.827-15.6142056-6.321-.8952025-.102-2.2828661-.168-3.6376324-.168-1.1862929 0-2.2719003.055-3.1342056.134-3.9287228.404-8.2721496 1.897-12.86081 3.459-4.8129595 1.638-9.7943925 3.345-14.3042991 3.727-.9739564.067-1.9698442.135-2.9447975.18-3.8170716.213-7.7557632.426-10.1851713 2.29-2.629782 2.021-3.771215 4.749-5.0821184 7.916-.3798131.909-.7606231 1.852-1.1972586 2.806-.8623053 1.562-2.0256698 3.134-3.2677881 4.785-1.84722745 2.481-3.76224303 5.04-4.70130845 7.713-.42566978 1.212-.7845483 2.538-1.1304673 3.817-.64996884 2.425-1.30990653 4.929-2.5520249 7.04-.12361372.248-.28012462.472-.4376324.708-.73769472 1.145-1.5102804 2.324-1.2750156 4.704zM165.378193 252.946c.582181 3.919-.313022 11.565-3.089346 15.113-1.242118 1.584-2.887975 2.291-5.373208 2.291-.581184 0-1.231153-.045-1.924985-.123-4.63352-.518-9.73757-2.224-13.65433-4.571-1.355763-.808-2.586916-1.785-3.907788-2.841-1.443489-1.145-2.920872-2.323-4.679377-3.345-3.156137-1.853-6.625296-2.538-10.005732-3.189-3.07838-.595-5.988287-1.156-8.238256-2.582l-.033894-.035-.010965-.033c-.223303-.438-.491465-.864-.749658-1.28-.157508-.27-.324984-.516-.470529-.774l-.010966-.034c-.514393-2.358-.04486-4.738 1.331838-6.714 1.376698-1.977 3.492087-3.279 5.809844-3.582 5.886604-.247 12.423178-.708 17.49433-1.246 3.547913-.372 6.961246-1.258 9.962866-2.044 2.450343-.629 4.756137-1.247 6.872524-1.504.312025-.035.637009-.057.928099-.057 2.618817 0 3.828038 1.516 4.656449 2.998 1.254081 2.223 2.98866 6.737 4.185919 10.229.29109.853.840374 2.931.907165 3.323zm-.302056.034c-.055825-.371-.593146-2.447-.896199-3.267-1.197259-3.481-2.921869-7.973-4.152025-10.173-.794517-1.403-1.93595-2.852-4.399253-2.852-.280124 0-.593146.012-.895202.067-2.093458.259-4.399252.865-6.827664 1.494-3.011588.786-6.424922 1.672-10.006729 2.054-5.082118.539-11.618691.999-17.495327 1.235-2.22704.304-4.275638 1.55-5.596511 3.458-1.319875 1.909-1.790405 4.189-1.286978 6.458.13458.235.291091.493.448598.728.246231.417.525359.843.737695 1.281 2.194143 1.37 5.05919 1.931 8.081745 2.526 3.413333.663 6.917383 1.336 10.106417 3.223 1.780436 1.033 3.269782 2.223 4.724237 3.379 1.298941 1.033 2.541059 2.021 3.872897 2.818 3.883863 2.302 8.943053 4.009 13.53271 4.526.682866.066 1.319876.111 1.891091.111 2.406479 0 3.940685-.651 5.126978-2.177 2.484237-3.167 3.670529-10.6 3.03352-14.889zm-116.5876635-2.044c-.224299-2.604 1.3089097-3.996 2.7533957-5.097 2.3725856-1.785 5.9543925-2.909 9.357757-2.909 3.7831775 0 7.8235514 1.517 7.8235514 5.761 0 1.931-1.1753271 3.526-3.425296 4.615-1.9140187.931-4.4879751 1.448-7.2523364 1.448-3.9745795 0-8.5522742-1.191-9.2570717-3.818zm.3020561-.045c.5482866 2.089 4.2427414 3.56 8.9550156 3.56 2.7195015 0 5.249595-.494 7.1187539-1.415 1.4883489-.729 3.2568224-2.055 3.2568224-4.345 0-3.424-2.8102181-5.457-7.5214953-5.457-3.347539 0-6.8615577 1.1-9.1793147 2.852-1.3876635 1.044-2.8421184 2.38-2.6297819 4.805zm104.8902184 5.345c-.356885 1.785-1.578069 3.111-3.37944 3.739-.749657.247-1.500311.382-2.261931.382-4.834891 0-8.976947-5.322-11.203988-8.163l-.032897-.045v-.056c.009969-.269-.090716-.505-.179439-.775-.156511-.382-.302056-.785-.08972-1.28l.032898-.045c.145545-.134.236261-.303.269158-.516l.011963-.056.054829-.045c2.194143-1.437 4.992398-2.257 7.656074-2.257 2.743427 0 5.10405.842 6.839627 2.448 1.835264 1.717 2.764361 4.39 2.282866 6.669zm-2.484237-6.445c-1.679751-1.549-3.984548-2.38-6.638256-2.38-2.596884 0-5.30542.786-7.442741 2.189-.055826.225-.157508.427-.303053.584-.167477.36-.055825.674.079751 1.033.110654.258.200374.527.200374.831 2.205109 2.829 6.291339 8.006 10.946791 8.006.727726 0 1.455452-.113 2.172212-.371 2.18218-.763 2.9438-2.336 3.178068-3.514.448598-2.168-.424673-4.738-2.193146-6.378zm-18.121371 35.268c-.258193 1.302-1.265047 3.143-2.553022 4.671-5.89757 7.005-12.591651 12.125-18.490218 16.639-.571215.438-1.14243.865-1.689719 1.291-1.041745.798-2.003739 1.663-2.932835 2.471-3.369471 2.964-6.548536 5.782-12.7611217 5.782-.9181308 0-1.9020561-.078-2.9099065-.19-4.8687851-.585-11.0135826-2.606-13.9573832-4.581-2.4184424-1.618-4.6674144-4.2-6.011215-6.894l-.0109657-.035v-.044c-.0338941-2.47 1.5332087-3.638 3.0564486-4.76.7825545-.574 1.6229283-1.135 2.4393769-1.674 1.2421184-.809 2.5071651-1.639 3.5259813-2.538 4.5438007-3.93 6.2125857-7.545 8.1595016-11.733.9071651-1.965 1.8472274-3.985 3.1671028-6.209 3.2458567-5.501 11.7981309-8.781 22.8456079-8.781 1.881121 0 3.79514.102 5.675264.293 1.108536.112 2.584923.404 3.436262.673 5.170841 1.64 10.342679 9.163 9.010841 15.619zm-9.088598-15.327c-.85134-.269-2.294829-.55-3.392399-.673-1.857196-.191-3.760249-.281-5.64137-.281-10.935826 0-19.3864179 3.223-22.5993774 8.623-1.3079127 2.201-2.2489719 4.234-3.1441744 6.199-1.9479128 4.22-3.6386293 7.848-8.2382555 11.833-1.0297819.899-2.317757 1.752-3.5479127 2.56-.8174455.528-1.6677882 1.089-2.4294081 1.662-1.4554518 1.067-2.9547664 2.167-2.9438007 4.48 1.3208723 2.65 3.5369471 5.177 5.898567 6.76 2.9218692 1.965 8.9889097 3.94 13.8228038 4.524.9978816.124 1.9708411.181 2.8770093.181 6.0999377 0 9.2351397-2.763 12.5587537-5.694.941059-.82 1.903053-1.673 2.954767-2.481.549283-.415 1.108535-.853 1.690716-1.28 5.898567-4.525 12.570717-9.622 18.435389-16.606 1.242119-1.472 2.249969-3.302 2.506169-4.537 1.298941-6.31-3.76025-13.675-8.807477-15.27zm-2.138318 8.893c1.175327 1.437 1.544175 3.29 1.096574 5.536-.570219 2.841-3.200997 6.512-5.562617 8.87-1.376698 1.381-4.029408 3.447-6.570468 4.738-.941059.472-1.892087.966-2.843115 1.449-2.640748 1.346-5.137944 2.627-7.298193 3.638-1.141433.538-1.9140187.83-2.4513396.898-.3020561.056-.5811838.066-.8623053.066-1.6887227 0-3.1102803-.763-3.9277258-2.099-.8732711-1.482-.8732711-3.379.0328972-5.097.8623053-1.774 1.6458567-3.784 2.395514-5.727 1.5112772-3.851 3.0674143-7.848 5.4958255-10.633 2.328723-2.683 7.42081-4.559 12.380312-4.559 3.693457 0 6.56947 1.044 8.114641 2.92zm-.235264.19c-1.477384-1.807-4.287602-2.806-7.879377-2.806-4.880748 0-9.883116 1.83-12.156013 4.446-2.3955139 2.751-3.9396884 6.715-5.4399999 10.555-.7616199 1.942-1.5451713 3.951-2.4174455 5.748-.8623053 1.629-.8623053 3.424-.0229283 4.806.7496573 1.235 2.0715264 1.954 3.6595638 1.954.2581932 0 .5373209-.012.8174455-.056.4924611-.079 1.2650467-.36 2.3735824-.877 2.149284-1.021 4.644486-2.29 7.298193-3.637.9281-.483 1.891091-.966 2.83215-1.449 2.518131-1.268 5.136947-3.323 6.501682-4.682 2.328723-2.335 4.914642-5.928 5.473894-8.713.42567-2.156.066791-3.93-1.040747-5.289zm-51.6894709 11.588c-3.157134 0-5.6413707-1.504-6.806729-4.12l-.0209346-.046v-.033c.0328972-.528-.0119626-.955-.0448598-1.303-.0558255-.538-.1236137-.988.077757-1.628 1.0188162-3.122 6.2006231-5.21 10.4323988-5.21 3.6934579 0 5.9543925 1.505 6.200623 4.144.1455452 1.572-1.1195015 3.773-2.0595638 4.839-1.8133333 2.044-4.8687851 3.357-7.7786916 3.357zm7.5553894-3.559c.8832399-.989 2.1263551-3.144 1.9917757-4.604-.3359502-3.503-4.2417445-3.885-5.9095327-3.885-4.0413707 0-9.1902804 2.067-10.1413084 5.019-.1784424.561-.1335826.977-.077757 1.482.0448598.372.0897196.787.0667913 1.326 1.1195015 2.493 3.4920872 3.918 6.5146417 3.918 2.8321495 0 5.7978816-1.269 7.5553894-3.256zm137.1823055 9.274c-.156511-.931-.391776-2.335.694828-2.986.234268-.124.59215-.146 1.006854-.101h.032897l.033894.022c.358879.247 1.511278 1.1 1.712648 2.268.100686.517-.021931.999-.357881 1.437l-.032898.045c-.347912.236-.728722.349-1.131464.349-.6719 0-1.398629-.349-1.924984-.955l-.022928-.046-.010966-.033zm.302056-.09c.458567.517 1.074642.832 1.656822.832.33595 0 .659938-.102.941059-.304.268162-.348.368848-.752.30106-1.19-.145545-.82-.895203-1.595-1.567103-2.043-.346916-.023-.647975-.011-.805483.067-.884237.539-.682866 1.74-.526355 2.638zm-63.028038 9.802c.268162-2.514-.022928-4.906-.693831-5.815-1.656823-2.234-6.458816-3.032-10.421433-3.032-2.595888 0-5.003365.325-6.593396.921-2.909906 1.077-6.110903 3.963-8.68486 6.288-1.477383 1.313-3.145171 2.638-4.745171 3.93-4.13109 3.289-8.372835 6.668-10.399502 10.778h.324985c2.037632-3.986 6.20162-7.321 10.264922-10.554 1.6-1.28 3.266791-2.594 4.756137-3.93 2.553022-2.313 5.73109-5.176 8.596137-6.232 1.557134-.572 3.917757-.909 6.480748-.909 3.70542 0 8.586168.763 10.186168 2.907.615078.843.884237 3.201.638006 5.615-.323987 3.088-1.656822 8.601-2.731464 12.407-.077757.235-.145545.461-.212336.696h.302056c.077757-.202.134579-.404.190405-.607 1.096573-3.84 2.417445-9.363 2.742429-12.463zM1.8811215 304.461c-.6270405 0-1.254081.068-1.8811215.202v.314c.6270405-.135 1.254081-.224 1.8811215-.224 2.45034267 0 4.59862928 1.112 6.21158878 3.222 1.68971963 2.201 2.66367602 6.513 2.86604362 10.925h.268162c-.2023676-4.48-1.1753271-8.858-2.88897197-11.115-1.677757-2.168-3.917757-3.324-6.45682243-3.324zm134.5515265 9.476v.068c.066791 1.032-.368847 2.133-1.198255 2.997-.817446.888-1.869159 1.381-2.898941 1.381-.50243 0-.961994-.111-1.409595-.337l-.033894-.01-.021932-.045c-.04486-.068-.067788-.146-.089719-.225-.055826-.112-.100686-.236-.17944-.292l-.078754-.067.011963-.079c.246231-2.088 2.171215-4.513 4.319502-4.513.314018 0 .649968.056.96299.168l.04486.023c.202368.134.258193.347.314019.516.054828.157.089719.292.200374.37l.056822.045zm-.29109.134c-.145546-.123-.201371-.29-.245234-.448-.045857-.157-.090717-.27-.202368-.37-.279127-.079-.560249-.146-.840373-.146-1.979814 0-3.76025 2.234-4.018443 4.176.112648.112.168474.258.213334.381.022928.045.033894.091.056822.125.379813.191.782554.292 1.230156.292.940062 0 1.914018-.472 2.686604-1.281.749657-.797 1.14243-1.785 1.119502-2.729zM1.79140187 315.565c-.50442368-.347-1.07563863-.538-1.6578193-.538-.04485983 0-.08872276.01-.13358257.01v.304h.13358255c.52635514 0 1.03077882.157 1.47738318.46.84037383.584 1.34380063 1.707 1.36672897 2.987 0 .045-.0119626.078-.0119626.112h.30305295v-.112c-.01196262-1.393-.56024922-2.594-1.47738318-3.223zM311.313146 172.486c-5.517757 1.998-9.905046 6.95-10.40947 11.745-.280125 2.503.369844 6.119 4.959502 9.005.301059.179.571215.358.860311.527 2.475265 1.539 4.589657 2.863 6.045109 5.513 1.690717 3.088 1.376698 5.839 1.018816 9.027-.089719.843-.189408 1.718-.24623 2.606-.269159 4.052 2.395514 6.792 5.461931 9.454v-1.202c-2.618816-2.336-4.800997-4.794-4.577694-8.208.067788-.864.15651-1.717.257196-2.549.357881-3.199.683863-6.22-1.129471-9.554-1.568099-2.864-3.79514-4.257-6.370093-5.85-.268162-.169-.559252-.348-.828411-.517-3.335577-2.1-4.913645-4.929-4.577695-8.163.493458-4.469 4.622555-9.094 9.850218-10.992 2.339689-.842 4.780062-1.415 7.365981-2.01 0-.011.009969-.011.009969-.011v-.92c-.066791.01-.145545.033-.212336.044-2.618816.618-5.082119 1.19-7.477633 2.055zm-4.16299-79.63c-4.131091-.594-8.170468-1.067-12.100187-.134-4.958505 1.178-8.831402 3.682-12.692337 6.366-2.184174 1.515-4.600623 3.009-6.951277 4.457-3.470156 2.168-6.760872 4.189-8.888224 6.041-4.509907 3.93-6.099938 8.073-5.483863 14.327.649969 6.725 2.002741 12.183 3.324611 17.482.952024 3.818 1.93595 7.77 2.630778 12.172.178443 1.089.368848 2.189.570218 3.357.872275 5.019 1.858194 10.7 1.365732 15.079-.659937 5.872-4.946542 10.824-11.203987 12.923l-1.836262.349h1.500312c-.022929.033-.033894.078-.055826.123-.022928.101-.011962.202.032897.303.032898.068-1.75651.203-1.690716.247.202368.135 2.328723.012 2.474268-.202l.010966-.022c6.503676-2.223 10.969719-7.444 11.663551-13.631.492461-4.491-.503427-10.251-1.376698-15.326-.201371-1.169-.391776-2.269-.559252-3.346-.71676-4.436-1.701682-8.411-2.663676-12.25-1.298941-5.255-2.653707-10.679-3.302679-17.359-.582181-5.918.917134-9.847 5.181807-13.54 2.083489-1.809 5.329345-3.83 8.775576-5.963 2.350654-1.449 4.791028-2.953 6.996137-4.491 3.928723-2.728 7.577321-5.087 12.39028-6.232 3.761246-.887 7.712897-.438 11.753271.158 1.286979.191 2.540063.359 3.783178.538 2.877009.393 5.619439.775 8.204361 1.269v-.909c-2.552025-.495-5.259564-.865-8.09271-1.258-1.230156-.168-2.473271-.337-3.760249-.528zm-14.227539 217.455c-1.879128-2.707-3.659564-5.266-2.674642-8.927.649969-2.425 2.596885-3.728 4.656449-5.108 2.18218-1.471 4.444112-2.964 5.093084-5.929.873271-3.863.58218-13.249-.055826-16.101-.224299-1.01-.750654-2.111-1.309906-3.267-1.096574-2.279-2.339689-4.863-1.533209-7.265 1.063676-3.133 4.992399-5.434 8.80947-7.668 1.578069-.921 3.065421-1.809 4.34243-2.718 3.436262-2.503 8.618069-6.287 7.60025-12.283-.828412-4.851-4.834891-6.929-9.077633-9.129-2.541059-1.325-4.959501-3.245-7.309159-5.109-2.877009-2.279-5.842741-4.637-9.122492-5.973-.369844-.157-.727726-.315-1.085607-.461-.794518-.358-1.623926-.729-2.507166-.965-.303053-.09-.639003-.168-.973956-.27-2.786293-.763-6.603364-1.795-10.285857-1.795-1.198255 0-2.317757.111-3.325607.336-5.562617 1.201-9.704673 7.96-10.900935 13.991-2.104423 10.531 1.823302 16.672 5.271527 22.107 1.420561 2.224 2.764361 4.335 3.559875 6.569.491464 1.392.983925 3.525.424673 5.715-1.622928 6.456-6.592399 12.115-11.864922 18.111-1.276013 1.437-2.595888 2.941-3.861932 4.458-2.787289 3.322-5.316386 5.916-7.957133 8.173l-.202368.168c-1.600997 1.348-3.12324 2.65-4.34243 4.391-.157508.213-.302056.438-.436635.651-2.954767 4.772-3.346543 8.724-1.198256 12.126.739689 1.157 1.701682 2.078 2.642741 2.964.59215.573 1.197259 1.157 1.745546 1.797h1.152398c-.122616-.146-.24623-.303-.356884-.438-.594144-.741-1.27701-1.38-1.925982-2.009-.940062-.888-1.813333-1.73-2.496199-2.797-1.947913-3.076-1.55514-6.726 1.197259-11.16.122616-.203.268162-.404.392772-.606 1.163365-1.663 2.651714-2.919 4.207851-4.245l.20137-.168c2.674642-2.28 5.23863-4.907 8.047851-8.264 1.276012-1.516 2.597881-3.009 3.861931-4.446 5.350281-6.075 10.397508-11.823 12.055327-18.482.604113-2.414.08972-4.726-.448598-6.254-.828411-2.324-2.193146-4.468-3.648598-6.748-3.357508-5.278-7.174579-11.262-5.137944-21.445 1.153396-5.749 5.026293-12.16 10.2081-13.295.951028-.201 2.014704-.302 3.135202-.302 3.558879 0 7.309159 1.02 10.050592 1.774.346916.089.671901.179.973957.257.817445.214 1.578068.562 2.384548.921.357882.158.727726.325 1.096573.461 3.1681 1.302 6.087975 3.615 8.909159 5.849 2.373583 1.898 4.846854 3.852 7.46567 5.211 4.208847 2.189 7.847476 4.076 8.597134 8.477.929096 5.445-3.985545 9.038-7.253334 11.408-1.220186.898-2.69757 1.762-4.264672 2.672-3.950655 2.323-8.036885 4.704-9.189284 8.151-.929097 2.762.390779 5.514 1.567103 7.938.537321 1.124 1.028785 2.179 1.242118 3.077.627041 2.773.873271 12.07.066791 15.72-.581183 2.604-2.60785 3.951-4.734205 5.367-2.093458 1.414-4.275639 2.874-5.01433 5.636-1.096574 4.053.884236 6.905 2.809221 9.667 1.432523 2.066 2.931838 4.21 3.290716 6.962.04486.381.066792.752.101683 1.111h.894205c-.022928-.393-.055825-.797-.111651-1.224-.38081-2.964-1.93595-5.198-3.448224-7.365zm22.152772-45.677c-.885233 2.325-1.893084 4.952-3.224922 7.231-.302056.518-.637009 1.034-.995888 1.573-1.89109 2.941-4.040373 6.265-3.190031 12.665.17944 1.335.593147 2.65.996885 3.952.603115 1.909 1.231153 3.885 1.062679 5.917-.123614 1.696-.973956 3.628-1.466417 4.637-.616075 1.269-1.231153 2.358-1.813334 3.414-2.149283 3.908-3.849968 7.006-3.882866 14.877h.59215c.033894-7.713 1.622928-10.599 3.817072-14.597.593146-1.044 1.186292-2.144 1.813333-3.424.525358-1.055 1.410592-3.065 1.533209-4.851.168473-2.155-.469533-4.199-1.085608-6.163-.413707-1.315-.805483-2.561-.984922-3.852-.816449-6.164 1.276012-9.398 3.122243-12.261.33595-.539.683863-1.056.996885-1.595 1.354766-2.312 2.373582-4.962 3.268785-7.309.749657-1.953 1.443489-3.795 2.193146-5.019.357882-.584.76162-1.134 1.175327-1.672v-.921c-.604112.707-1.175327 1.448-1.689719 2.278-.772586 1.27-1.455452 3.055-2.238007 5.12zm-32.920124-9.363c-6.256449-1.034-11.405358-6.984-12.793022-14.81-.134579-4.491.268162-10.836 5.136947-14.372 1.533209-1.124 3.358505-1.685 5.429034-1.685 4.780063 0 10.556013 3.122 14.729969 7.95 3.325608 3.851 4.947539 8.05 4.455078 11.52-.873271 6.086-9.335826 11.509-15.401869 11.509-.526355 0-1.05271-.034-1.556137-.112zm.056822-.304c.481496.09.983925.124 1.499315.124 5.955389 0 14.24947-5.3 15.099813-11.251.492461-3.391-1.119502-7.5-4.376324-11.295-4.119128-4.76-9.817321-7.837-14.506667-7.837-2.002741 0-3.771215.549-5.248598 1.616-4.747165 3.459-5.149906 9.702-5.026293 14.092 1.364736 7.691 6.41296 13.552 12.558754 14.551zm36.656449 27.386l.011962.034c.04486.089.08972.179.122617.269v-2.729c-.156511.674-.223302 1.437-.134579 2.426zm-34.955763-38.322c-.727726 0-2.081496-.303-2.92187-2.347l-.009968-.033c-.145546-.999.077757-1.886.648972-2.549.593146-.707 1.55514-1.122 2.56299-1.122.839377 0 1.611963.292 2.138318.819.872274.887 1.130467 1.999.670903 3.099-.503426 1.235-1.802367 2.133-3.089345 2.133zm0-.303c1.164361 0 2.362616-.819 2.821183-1.953.234268-.562.458567-1.685-.616074-2.763-.469533-.46-1.164362-.74-1.924985-.74-.929096 0-1.790405.381-2.339688 1.021-.514393.607-.71676 1.392-.571215 2.291.571215 1.391 1.500311 2.144 2.630779 2.144zm4.780062 36.39c.055825 1.415-.47053 2.728-1.522243 3.829-1.399626 1.448-3.604735 2.358-5.763988 2.358-2.273894 0-4.053333-.988-4.880747-2.717l-.022929-.034c-.782554-4.155.448598-8.982 4.320499-10.206.414704-.112.839377-.192 1.276012-.192 3.358505 0 6.480748 3.897 6.593396 6.962zm-.29109.012c-.111652-2.908-3.190032-6.67-6.302306-6.67-.401744 0-.805483.056-1.197258.191-3.693458 1.145-4.85782 5.816-4.097197 9.824.772586 1.617 2.440374 2.526 4.60162 2.526 2.080499 0 4.207851-.864 5.550655-2.267.985919-1.034 1.488348-2.268 1.444486-3.604zm-12.279627 22.714c-1.968847-3.133-4.812959-5.03-8.024922-5.345-.313022-.033-.62704-.045-.96299-.045-5.417072 0-12.132088 4.099-15.02106 7.928-1.186292 1.571-1.75651 3.536-1.55514 5.4.604112 3.032 2.048598 5.772 3.927726 8.118h.391776c-1.934953-2.346-3.424299-5.109-4.029408-8.163-.190405-1.774.358878-3.671 1.500311-5.176 2.843115-3.772 9.458443-7.803 14.785795-7.803.324984 0 .638006.011.941059.044 3.111277.292 5.875638 2.156 7.800623 5.21 1.645857 2.594 2.955763 6.288 4.231776 9.859.727725 2.065 1.488348 4.188 2.282866 6.029h.323987c-.816448-1.875-1.588037-4.031-2.338691-6.13-1.26405-3.593-2.585919-7.299-4.253708-9.926zm32.516387 12.665c-.269159 1.067-.47053 2.212-.571215 3.391h.302056c.101682-1.156.303053-2.279.560249-3.335.626044-4.816 5.328349-9.544 10.07352-10.588v-.314c-4.935576 1.022-9.703676 5.816-10.36461 10.846zm7.980062.864c-.54729.719-.850343 1.584-.88324 2.527h.301059c.034891-.864.303053-1.684.817446-2.346.571215-.73 1.342804-1.168 2.149283-1.213v-.304c-.907165.045-1.757508.528-2.384548 1.336zm-5.65134-218.296c-4.80299-.853-9.760498-1.751-14.439875-.572-4.455078 1.123-7.89134 3.885-11.550903 6.804-1.319876 1.055-2.686605 2.133-4.108162 3.166l-.570218.404c-2.497197 1.774-5.071153 3.604-7.488599 5.581l-.033894.033c-3.27975 3.38-3.547912 8.062-3.391402 12.183.022929.752.04486 1.527.078754 2.313.167477 4.861.345919 9.903 1.130468 12.755.929096 3.38 2.865046 6.085 4.734205 8.724 2.843116 4.009 5.540686 7.793 4.634517 13.53-.112648.775-.358878 1.572-.594143 2.358-.301059 1.021-.62704 2.066-.704797 3.122-.067789.909.100685 1.751.268162 2.571.100685.549.213333 1.089.24623 1.639.180436 2.661-.525358 5.759-1.914019 8.488-2.618816 5.154-7.733831 8.882-13.677258 9.982-1.946916.37-3.917757.831-5.831776 1.28-3.256822.775-6.625296 1.573-9.927975 1.865-.783551.055-1.533209.123-2.282866.179-6.593396.539-12.26866.988-18.603863 3.952-1.533209.718-3.200997 1.314-4.812959 1.898-4.856823 1.739-9.883116 3.537-11.976574 8.802-1.265046 3.155-2.977694 6.131-4.645482 9.017-2.383552 4.131-4.856823 8.398-6.010219 13.282-.873271 3.684-.323987 7.423.223303 11.049.078754.46.134579.931.202367 1.392.715763 4.963 1.018816 9.072.167477 13.013-1.017819 4.75-4.007477 7.052-11.42729 8.814-6.940311 1.651-9.817321 2.617-11.261807 10.049-.245233 1.348-.479501 2.729-.704797 4.066-1.510281 8.791-2.921869 17.1-10.722492 19.412-2.137321.629-5.483863.516-7.723863-.954-1.341807-.876-2.126356-2.144-2.327726-3.728-.167477-1.246-.201371-2.582-.246231-3.885-.078754-2.234-.145545-4.345-.76162-6.13-1.308909-3.784-5.002367-6.052-9.268037-8.702-1.923988-1.201-3.917757-2.426-5.831776-3.896-1.386666-1.056-2.573956-2.1-3.737321-3.088-3.112274-2.694-5.798878-5.007-10.174205-5.973-2.474268-.561-5.407103-.686-8.239253-.797-5.819813-.247-11.315638-.471-12.794018-4.154-.525359-1.348-.21134-3.347.07975-5.11.032898-.212.066792-.426.08972-.629.110654-.707.21134-1.459.323988-2.245.805483-5.951 1.925981-14.113 7.476635-14.922 1.958879-.292 4.332461-.056 6.816698.202.862305.079 1.746542.18 2.630779.237 7.946168.627 13.778941-.81 17.472399-1.955 3.928722-1.202 7.04-3.459 10.07352-5.636 2.909906-2.1 5.663302-4.076 9.021807-5.132 1.276012-.393 2.686604-.707 4.185919-1.044 5.406106-1.19 11.540934-2.537 13.297445-8.668 1.398629-4.918-.828411-10.239-2.98866-15.371-1.052711-2.482-2.048598-4.829-2.574954-7.018-1.264049-5.322 1.030779-11.351 3.044486-16.662.414704-1.112.807477-2.144 1.176324-3.188 1.21919-3.493 2.87701-5.659 6.27838-8.298 5.182804-3.998 8.31701-8.309 11.607726-15.91.235265-.561.469533-1.089.715764-1.64 1.030778-2.391 2.003738-4.637 3.157134-7.612 1.387663-2.279 2.932834-3.953 4.286604-5.424 2.149283-2.335 4.018442-4.356 4.690343-7.86.133582-.65.20137-1.336.279127-2.054.079751-.797.145545-1.617.325982-2.437.760623-3.739 3.379439-5.928 5.909532-8.039 2.182181-1.819 4.444112-3.705 5.317383-6.523.794518-2.561.815452-4.199.559253-7.118-.549284-6.019-2.597882-10.645-5.630405-12.711-1.992773-1.348-4.377321-1.617-7.051963-.808-5.316386 1.605-13.409096 11.778-14.976199 13.799-.368847.471-.727726.954-1.085608 1.414-2.451339 3.235-4.75813 6.277-8.13757 7.546-2.932835 1.1-6.827663 1.515-10.946791 1.975-2.485234.271-5.071153.551-7.488598 1.001-9.793396 1.807-16.733707 8.668-18.076511 17.908-.08972.618-.123614 1.336-.168474 2.066-.077757 1.482-.166479 3.155-.692834 4.402-.985919 2.368-3.471153 2.896-6.089969 3.468-.817446.181-1.655826.36-2.45134.596-2.843115.842-5.304424 2.47-7.7119 4.064-2.87701 1.887-5.842742 3.852-9.559128 4.604-1.443489.292-3.1681.45-4.845857.584-2.217071.191-4.510903.382-6.235514.921-5.618442 1.74-4.29757 7.028-3.245856 11.284.235264.921.448598 1.785.58218 2.571.705795 3.997.402742 8.297-.951028 13.53-.279127 1.1-.504423 2.178-.715763 3.211-.582181 2.796-1.14243 5.445-2.7533955 8.096-1.3328349 2.212-2.508162 2.728-4.4550779 3.593-.5263552.224-1.1085358.483-1.747539.808-5.8417445 2.897-10.2639252 6.861-14.9303426 11.059l-1.0078505.898c-1.5451713 1.382-2.9099065 2.931-4.2417445 4.425-1.4664175 1.661-2.9996262 3.368-4.7232399 4.839-2.8989408 2.425-6.4807477 4.29-11.2388785 5.85-3.2907165 1.077-6.6701558 1.998-9.9160125 2.896-4.9704673 1.371-10.1084112 2.774-15.0669159 4.761-4.3643613 1.753-14.0690342 2.999-19.978567 1.034-3.10031148-1.011-6.94031148-3.526-11.77619933-7.68C.51439252 219.633.24623053 219.397 0 219.15v1.213c.06778816.067.13358255.123.22330218.201 4.98143302 4.29 8.83140187 6.771 12.07725852 7.848 6.3361994 2.09 16.1963863.686 20.5956387-1.065 4.903676-1.965 10.0176947-3.369 14.9652336-4.728 3.2677882-.887 6.6382555-1.819 9.9618692-2.908 4.868785-1.605 8.5293458-3.515 11.5180062-6.018 1.8013707-1.493 3.3465421-3.246 4.834891-4.929 1.3099065-1.471 2.6527103-2.987 4.1649844-4.346l1.0068536-.909c4.6345171-4.154 8.9988785-8.073 14.7299688-10.914.6270405-.303 1.2092212-.572 1.7236137-.797 1.9588785-.864 3.3694704-1.493 4.8578191-3.941 1.678754-2.785 2.249969-5.513 2.855078-8.387.21134-1.023.446604-2.088.715763-3.155 1.388661-5.379 1.68972-9.802.961994-13.923-.145545-.82-.357881-1.696-.593146-2.628-1.074642-4.289-2.160249-8.723 2.630779-10.217 1.644859-.494 3.883862-.697 6.044112-.876 1.701682-.157 3.45919-.303 4.958504-.595 3.895826-.786 6.939315-2.807 9.873147-4.749 2.450342-1.618 4.756137-3.145 7.464673-3.953.772585-.224 1.590031-.403 2.395514-.572 2.74243-.596 5.552648-1.202 6.726978-3.987.582181-1.402.682866-3.155.760623-4.704.034891-.729.067788-1.415.168473-1.999 1.276013-8.836 7.9362-15.416 17.349782-17.156 2.372586-.438 4.947539-.719 7.42081-.988 4.174954-.45 8.125608-.876 11.160125-2.021 3.614704-1.359 6.010218-4.514 8.540312-7.837.357881-.471.704797-.944 1.062679-1.404 4.264673-5.501 10.622803-12.317 14.528598-13.507 2.418442-.719 4.532835-.483 6.290342.707 2.820187 1.898 4.734206 6.288 5.250592 12.048.245234 2.694.279128 4.232-.516386 6.748-.79352 2.582-2.865047 4.289-5.036262 6.119-2.65271 2.212-5.383177 4.491-6.211588 8.555-.17944.855-.268162 1.696-.347913 2.505-.065795.707-.145545 1.37-.2562 1.988-.639003 3.244-2.418442 5.176-4.46704 7.421-1.409595 1.504-2.987664 3.223-4.420187 5.591l-.034891.079c-1.141433 2.975-2.126355 5.232-3.156137 7.613-.245234.55-.480498 1.078-.71676 1.639-3.222928 7.444-6.27838 11.666-11.316636 15.562-3.58081 2.751-5.30542 5.03-6.592398 8.714-.368848 1.01-.760623 2.054-1.174331 3.155-2.071526 5.433-4.411215 11.587-3.067414 17.201.537321 2.267 1.545171 4.637 2.596885 7.152 2.104423 4.985 4.286604 10.161 2.954766 14.788-1.6 5.603-7.454704 6.894-12.614579 8.027-1.522243.337-2.965732.652-4.264673 1.056-3.491091 1.1-6.447851 3.223-9.278006 5.266-2.966729 2.134-6.022181 4.356-9.817321 5.513-3.614704 1.112-9.345795 2.526-17.136449 1.908-.873271-.056-1.757508-.146-2.596885-.235-2.552025-.248-4.980436-.483-7.04-.191-6.245483.909-7.386916 9.454-8.249221 15.686-.100685.797-.201371 1.527-.303053 2.222-.043863.203-.077757.417-.111651.629-.29109 1.887-.638006 4.02-.010966 5.593 1.68972 4.221 7.453708 4.456 13.588536 4.703 2.78729.125 5.674268.236 8.09271.775 4.14106.921 6.626293 3.077 9.771465 5.782 1.164361 1.011 2.372585 2.045 3.772212 3.134 1.946915 1.482 3.973582 2.739 5.920498 3.941 4.120125 2.549 7.66704 4.749 8.876262 8.23.571215 1.661.649968 3.706.71676 5.872.032897 1.314.077757 2.673.24623 3.974.246231 1.831 1.174331 3.336 2.731464 4.357 2.473271 1.606 6.122867 1.752 8.461558 1.067 8.338941-2.481 9.87215-11.453 11.349533-20.132.224299-1.336.470529-2.706.71676-4.03 1.309906-6.816 3.738318-7.737 10.576947-9.354 6.547539-1.549 10.846106-3.682 12.100187-9.499.873271-4.076.582181-8.286-.145545-13.328-.066792-.471-.145545-.931-.212337-1.403-.549283-3.694-1.074641-7.197-.235265-10.712 1.107539-4.738 3.558879-8.96 5.91053-13.024 1.688723-2.908 3.424299-5.928 4.700312-9.14 1.936947-4.895 6.559501-6.557 11.451215-8.297 1.632897-.585 3.323613-1.19 4.890716-1.932 6.178692-2.896 11.797134-3.346 18.288847-3.862.750655-.056 1.512275-.123 2.283863-.179 3.369471-.292 6.782804-1.101 10.063552-1.887 1.902056-.438 3.872897-.921 5.785919-1.268 6.223551-1.157 11.573832-5.065 14.316261-10.465 1.489346-2.908 2.205109-6.098 2.015701-8.949-.056822-.606-.157507-1.19-.270155-1.752-.167477-.797-.302056-1.537-.246231-2.324.055826-.966.358879-1.92.659938-2.931.258193-.808.504423-1.65.639003-2.492.951028-6.097-1.970841-10.207-4.801994-14.193-1.824299-2.559-3.716386-5.21-4.611589-8.432-.76162-2.762-.918131-7.747-1.085607-12.553-.022929-.774-.055826-1.549-.08972-2.312-.156511-3.93.112648-8.366 3.122243-11.498 2.395514-1.955 4.948536-3.784 7.409844-5.536l.582181-.415c1.444486-1.022 2.821184-2.123 4.153022-3.178 3.570841-2.863 6.962243-5.558 11.226916-6.635 4.477009-1.135 9.133458-.304 14.047103.584 1.500311.269 3.03352.561 4.566729.763 1.254081.18 2.463302.449 3.626666.82v-.944c-1.130467-.348-2.304797-.594-3.503053-.763-1.511277-.213-3.055451-.483-4.532835-.764zm-4.612585 67.381c-1.533209.111-3.121246.212-4.779066.426-4.108162.505-5.238629 1.92-7.095825 4.267-.280125.347-.560249.718-.895203 1.1-.391775.483-.772585.92-1.14243 1.358-2.248972 2.65-4.040373 4.75-4.219813 9.185-.156511 3.784 1.489346 6.086 3.391402 8.747.291091.393.582181.796.884237 1.223.24623.36.525358.765.828411 1.168 3.178069 4.503 8.013957 11.307 5.272524 16.315-3.090343 5.648-13.030281 3.716-18.357633 2.672l-.514392-.09c-.571215-.112-1.152399-.225-1.735577-.359-4.487975-.921-9.133458-1.886-11.226916.999l-.737694 1.09c-3.223926 4.783-6.268412 9.295-7.533458 14.495-1.141433 4.693-1.388661 10.037-.749658 15.427.402742 3.313 2.182181 6.658 3.905795 9.891 2.463302 4.627 4.768099 8.983 3.135202 12.925-1.522243 3.638-4.623551 6.489-7.623177 9.262-1.768474 1.628-3.603739 3.324-5.05919 5.132-.704798.876-1.421558 1.729-2.11539 2.56-2.920872 3.48-5.664299 6.77-7.477632 10.947-.435639.989-.873271 1.976-1.30891 2.931-1.041744 2.268-2.115389 4.603-2.898941 7.107-1.511277 4.795-2.60785 9.757-3.66056 14.552 0 .045-.010966.078-.022929.112h.930094c1.028785-4.749 2.104423-9.678 3.603738-14.394.772586-2.448 1.779439-4.66 2.855078-6.996.436635-.965.88324-1.953 1.331838-2.952 1.745545-4.065 4.465047-7.299 7.33109-10.734.693832-.832 1.420561-1.696 2.11539-2.561 1.444486-1.774 3.234891-3.435 4.981433-5.04 3.077383-2.83 6.256448-5.761 7.834517-9.579 1.81433-4.333-.715763-9.094-3.167103-13.687-1.679751-3.166-3.425296-6.434-3.806106-9.577-.62704-5.311-.379813-10.52.738692-15.112 1.220187-5.042 4.231775-9.5 7.397881-14.205l.728723-1.067c1.745545-2.413 6.099938-1.515 10.307788-.639.594144.112 1.176324.246 1.747539.347l.514393.102c5.562617 1.078 15.905296 3.088 19.318629-3.122 3.022555-5.523-2.003738-12.586-5.327352-17.268-.303053-.415-.571215-.808-.840374-1.18-.29109-.415-.581184-.83-.872274-1.223-1.880125-2.639-3.380436-4.705-3.234891-8.185.168474-4.121 1.779439-6.008 4.018442-8.635.379814-.438.760623-.886 1.164362-1.369.313022-.393.615078-.764.88324-1.112 1.848224-2.325 2.776324-3.48 6.514641-3.941 1.634891-.191 3.201994-.314 4.724237-.416 2.270904-.157 4.610592-.325 7.219439-.774 1.891091-.337 3.659564-.764 5.372212-1.247v-.931c-1.757508.493-3.581807.943-5.506791 1.291-2.585919.437-4.902679.606-7.141682.764zm-81.541184 149.141c5.652336-2.952 8.171464-8.51 9.894081-13.552.448598-1.28.862305-2.594 1.265047-3.862.458567-1.426.930093-2.897 1.421557-4.335 1.276013-3.648 2.698567-7.533 4.735203-11.194l.302056-.527c.794517-1.438 1.489346-2.672 2.685607-3.796 1.52324-1.402 2.24-2.896 3.157134-4.783l.291091-.584c.605109-1.235 1.387663-2.436 2.148286-3.593.873271-1.347 1.791402-2.738 2.452337-4.232 1.275015-2.874.447601-5.682-.358879-8.399-.268162-.932-.548286-1.897-.738691-2.818-.715764-3.593-.178443-6.793.392772-10.195.246231-1.493.50243-3.043.647975-4.638.157508-1.683.190405-3.412.223302-5.085.046854-2.201.090717-4.29.370842-6.277.368847-2.605 1.387663-4.761 2.360623-6.839.71676-1.515 1.38866-2.929 1.803364-4.479.615078-2.246.749657-6.321-1.321869-8.354-1.443489-1.393-3.492087-1.449-5.305421-1.494-.536324-.022-1.062679-.045-1.55514-.089-1.320872-.123-2.553022-.528-3.84-.966-1.130467-.37-2.304797-.764-3.558878-.943-4.063302-.606-8.842368.079-11.338567.528-3.693458.697-9.043739 2.504-11.663552 4.514-2.372585 1.83-4.253707 5.355-5.921495 8.477-.704798 1.347-1.387664 2.605-2.047601 3.661-.190405.302-.391776.617-.583178.909-3.144174 4.906-6.120872 9.555-5.282492 19.424.179439 2.111.850343 9.342 2.104424 13.541.727725 2.471 2.093458 4.436 3.41433 6.321 1.913022 2.74 3.558878 5.11 2.976698 8.444-.323988 1.909-1.276013 3.537-2.607851 4.48-1.175327.82-2.596885 1.101-4.20785.809-1.09757-.203-2.206106-.629-3.268785-1.034-1.062679-.415-2.171215-.853-3.279751-1.066-3.278754-.617-5.517757-.584-8.27215.168-7.991028 2.168-9.860187 9.893-11.830031 18.066-.179439.73-.357881 1.461-.526355 2.189-2.081495 8.321-5.272523 13.486-11.372461 18.448-.503427.405-.995888.775-1.477383 1.112-.313022.247-.627041.46-.895203.685-2.809221 2.168-4.735202 3.761-6.336199 5.659h1.18729c1.454455-1.583 3.211962-3.043 5.696199-4.952.270156-.224.571215-.438.874268-.662.492461-.36.995888-.73 1.521246-1.145 6.268411-5.098 9.538193-10.397 11.663552-18.931.179439-.718.357881-1.46.538317-2.189 1.914019-7.916 3.71539-15.382 11.192025-17.404 2.608848-.718 4.735203-.752 7.858443-.157 1.051713.202 2.059563.595 3.133208 1.01 1.108536.427 2.239003.877 3.436262 1.089 1.836262.327 3.515016 0 4.880748-.966 1.51028-1.065 2.606853-2.907 2.977694-5.052.63701-3.705-1.186293-6.344-3.135202-9.117-1.275016-1.831-2.606854-3.728-3.278754-6.051-1.220187-4.132-1.903053-11.285-2.081495-13.385-.807477-9.555 2.092461-14.068 5.147912-18.841.202368-.314.392773-.606.593147-.931.6719-1.078 1.366729-2.347 2.093458-3.706 1.611962-3.042 3.436261-6.478 5.663302-8.185 2.507165-1.931 7.679003-3.682 11.283738-4.334 2.428411-.46 7.095826-1.122 11.04648-.538 1.176324.179 2.294829.549 3.403364.919 1.286979.417 2.608848.855 4.041371 1.001.524362.045 1.062679.066 1.610966.078 1.724611.045 3.503053.113 4.690343 1.268 1.80137 1.741 1.622928 5.491 1.096573 7.456-.391776 1.482-1.041745 2.863-1.746542 4.334-1.007851 2.134-2.059564 4.356-2.45134 7.096-.280124 2.044-.324984 4.245-.357881 6.378-.055826 1.661-.08972 3.38-.235265 5.018-.133583 1.562-.402742 3.1-.649969 4.592-.54729 3.324-1.12947 6.76-.379813 10.499.201371.989.492461 1.965.772586 2.897.783551 2.684 1.533208 5.221.391775 7.781-.62704 1.437-1.534205 2.796-2.384548 4.11-.771589 1.179-1.566106 2.402-2.216075 3.683l-.280124.594c-.872275 1.797-1.566106 3.223-2.954767 4.514-1.308909 1.213-2.069533 2.582-2.865047 4.031l-.303052.516c-2.069533 3.718-3.514019 7.647-4.790032 11.34-.504423 1.438-.973956 2.921-1.432523 4.346-.403738 1.28-.828411 2.583-1.254081 3.863-1.678754 4.872-4.096199 10.239-9.457445 13.035-.962991.495-1.870156 1.258-2.765359 2.01-1.398629 1.168-2.865046 2.37-4.432149 2.538-2.854081.303-4.791028-1.999-6.648225-4.222-.538317-.651-1.040747-1.257-1.567102-1.796-1.466418-1.482-2.909907-3.122-3.649595-4.896-.693832-1.651-1.153396-3.121-1.567103-5.063-.201371-.966-.391776-2-.593147-3.089-1.297944-7.028-2.89894-15.764-11.08137-15.18l-.08972.012-.088723.033c-3.761246 1.932-5.060187 6.501-6.200623 10.532l-.112648.405c-1.958878 6.927-3.761246 12.619-7.387913 17.515-.737694.977-1.521246 1.92-2.282866 2.83-.973956 1.168-1.924984 2.313-2.69757 3.469h1.096574c.6719-.954 1.467414-1.92 2.283862-2.897.771589-.921 1.556138-1.864 2.305795-2.874 3.738318-5.007 5.551651-10.779 7.543427-17.808l.112648-.393c1.075638-3.829 2.305794-8.163 5.674268-9.937 7.288224-.472 8.753644 7.467 10.052585 14.463.201371 1.1.391776 2.121.604112 3.11.424673 1.986.884237 3.503 1.600997 5.221.805483 1.92 2.31676 3.626 3.838007 5.176.493457.516.996884 1.11 1.522242 1.729 1.376698 1.65 2.866044 3.447 4.847851 4.21h3.938692c1.277009-.505 2.418442-1.471 3.548909-2.391.895203-.753 1.735577-1.46 2.596885-1.91zM7.56635514 169.162c5.39514016-1.774 10.51115266-3.447 17.91999996-1.942 6.4368848 1.313 13.128972 1.358 18.3795639.146 8.5293458-1.988 8.8862305-8.938 9.4235514-19.447.0239252-.572.0677882-1.145.1016822-1.696.1335826-1.639.2571963-3.2.0229284-4.682-.7506542-5.345-5.8098442-7.186-10.6566978-8.274-3.4701558-.787-6.9951402-.73-10.3985047-.686-2.5400623.045-4.9355763.079-7.2413707-.224-2.1612461-.27-3.6157009-.955-4.4560748-2.066-1.3757009-1.853-1.0517134-4.761-.5024299-8.366 1.6229284-10.352-.7277258-15.371-5.0262928-20.097C11.2937072 97.606 6.0660436 95.809 0 94.642v.909c5.84274143 1.134 10.8341433 2.896 14.46081 6.883 4.1310903 4.535 6.3690965 9.353 4.8249221 19.345-.5931464 3.829-.9290966 6.917.6599377 9.04.985919 1.324 2.6417445 2.121 5.0482243 2.436 2.3845483.292 4.8019938.258 7.3759501.224 3.3465421-.044 6.8176947-.101 10.1981309.663 4.7680997 1.078 9.2780062 2.728 9.9728349 7.534.2013707 1.381.077757 2.886-.0338941 4.481-.0338941.561-.0907165 1.133-.1116511 1.717-.5831776 11.329-1.1982555 16.853-8.7307165 18.616-5.1269782 1.19-11.6864798 1.134-17.9987539-.146-7.645109-1.55-12.8498442.146-18.37956387 1.965-1.92498442.629-3.90679128 1.269-5.98728972 1.774-.4376324.101-.8742679.202-1.2989408.304v.92c.49246108-.124.99588787-.225 1.50031155-.359 2.12635514-.495 4.12909657-1.157 6.0660436-1.786zM262.288349 95.36c-.067788-.067-.112648-.169-.168474-.303-.078754-.224-.20137-.539-.492461-.752-.884236-.674-2.854081-.977-4.947539-1.291-.637009-.101-1.242118-.203-1.813333-.292-6.738941-1.235-13.085109-4.256-19.240872-7.186-2.126355-1.011-4.320499-2.043-6.491714-2.999l-.817445-.359c-5.898567-2.56-10.980685-4.794-15.367975-9.633-3.592773-3.964-5.77595-8.275-6.313271-12.486-.872274-6.782 1.645856-9.768 4.321495-12.934.772586-.921 1.566106-1.864 2.294829-2.92 1.26405-1.83 2.315763-3.941 1.420561-6.961-.838381-2.853-3.301683-4.828-6.167726-7.142-.401745-.336-.828412-.685-1.253084-1.032-2.013708-1.651-3.693458-3.392-5.316387-5.075-2.899937-3.01-5.406106-5.604-8.865296-6.681-3.245856-1.022-7.04-.382-10.398504 1.751-3.492088 2.212-5.977321 5.682-6.458817 9.039-.212336 1.482-.133582 3.167-.077757 4.783.077757 1.942.167477 3.952-.213333 5.671-1.051713 4.67-5.741059 7.186-9.703676 8.836-3.973582 1.661-7.980062 3.963-11.864922 6.187-5.608474 3.211-10.890966 6.243-16.117632 7.556-5.596511 1.415-10.92486-.359-15.637134-1.931-1.791402-.607-3.481122-1.179-5.047228-1.505-5.317383-1.133-8.955015.73-9.9519 5.087-.312025 1.381-.447601 2.851-.570218 4.267-.08972.976-.190405 1.986-.324985 2.952-.750654 4.75-2.674641 8.657-4.555763 12.43-1.578068 3.211-3.2009967 6.512-4.0961992 10.285-.3469159 1.493-.571215 3.671-.7845483 5.984-.2561994 2.627-.5253583 5.334-1.0068536 7.163-.8054829 3.1-2.1492835 5.873-3.5927726 8.804-.8842367 1.841-1.824299 3.749-2.6527103 5.815-.2352647.584-.4585669 1.18-.6719003 1.753-1.6229283 4.333-3.0215576 8.072-9.0876012 6.983-6.3700935-1.123-11.943676-5.715-13.5566355-11.172-1.1633645-3.907-1.4983178-10.812-.7486605-15.057.8732711-4.963 3.4362617-11.901 7.7119004-15.157 1.6897196-1.292 3.4023676-2.044 5.0701557-2.752 2.585919-1.134 5.2725234-2.302 7.7119003-5.546 2.663676-3.537 4.4999377-11.689 2.9218692-19.212-.5931464-2.862-1.6787539-5.378-2.854081-8.027-.9739564-2.246-2.0027414-4.547-2.8201869-7.276-.5163863-1.752-.8294081-5.176-.4366355-7.883.2013707-1.369.7047975-3.02 1.21919-4.749l.2691589-.876C86.4 25.904 88.4804984 18.93 94.3690966 17.572c3.1112772-.708 5.6742674 1.448 8.3838004 3.74 1.757508 1.482 3.581807 3.019 5.675265 3.862 4.800997 1.953 10.02866.426 15.569346-1.213 1.89109-.562 3.872897-1.146 5.876635-1.595 2.238007-.516 4.509907-.83 6.692088-1.134 3.245856-.448 6.303302-.876 9.178317-1.864 4.354393-1.515 7.153645-4.401 9.671776-9.937 2.092461-4.614 3.570841-7.163 5.641371-9.431h-1.18729c-1.858193 2.2-3.323614 4.772-5.259564 9.049-2.407477 5.301-5.05919 8.04-9.167352 9.455-2.78729.966-5.798878 1.392-8.987913 1.842-2.217071.302-4.488972.629-6.771838 1.156-2.049595.46-4.030405 1.044-5.955389 1.605-5.361246 1.584-10.45433 3.089-14.964237 1.235-1.958878-.797-3.727352-2.29-5.44-3.727-2.754392-2.324-5.6084734-4.727-9.157383-3.907-6.3910281 1.482-8.5512773 8.724-10.2858567 14.551l-.2571963.876c-.5482866 1.763-1.0407477 3.436-1.2421184 4.873-.4256697 2.841-.0897196 6.434.4575701 8.275.8403739 2.784 1.8591901 5.12 2.8550779 7.365 1.1424299 2.628 2.2270405 5.087 2.8092212 7.86 1.4893458 7.186-.2791277 15.192-2.7643614 18.482-2.3057944 3.054-4.7680997 4.131-7.3649844 5.276-1.712648.73-3.4691589 1.505-5.249595 2.853-4.4879751 3.414-7.1416823 10.6-8.0588162 15.719-.7835514 4.446-.4366355 11.374.7616199 15.461 1.7116511 5.772 7.5773209 10.633 14.270405 11.823 6.8047352 1.19 8.4625545-3.256 10.0854829-7.556.2123364-.573.4366355-1.168.6599377-1.741.8174454-2.031 1.7455451-3.93 2.6417445-5.749 1.4434891-2.986 2.8092212-5.782 3.6366355-8.97.5044237-1.91.7725857-4.648 1.0307788-7.31.2233022-2.29.4366356-4.446.7725857-5.872.8623053-3.672 2.4054832-6.782 4.0284112-10.083 1.903053-3.851 3.861931-7.815 4.622555-12.699.157507-.988.247227-2.01.33595-2.998.135576-1.392.258193-2.841.560249-4.154 1.198255-5.221 6.088972-4.997 8.898193-4.402 1.500312.303 3.179065.864 4.948536 1.46 4.823925 1.628 10.285857 3.447 16.140561 1.965 5.327352-1.359 10.923863-4.559 16.341931-7.658 3.849969-2.212 7.856449-4.502 11.76324-6.13 4.163988-1.741 9.088598-4.391 10.219065-9.476.414704-1.819.335951-3.897.257197-5.895-.077757-1.663-.145546-3.223.056822-4.615.446604-3.11 2.764361-6.333 6.044112-8.411 3.144175-1.986 6.671153-2.592 9.670779-1.65 3.222928 1 5.663302 3.526 8.472523 6.445 1.645857 1.696 3.346542 3.447 5.395141 5.143.425669.36.851339.707 1.277009 1.032 2.842118 2.302 5.10405 4.111 5.864673 6.704.817445 2.784-.234268 4.671-1.298941 6.186-.692835 1.034-1.499315 1.955-2.249969 2.864-2.674642 3.155-5.439003 6.433-4.532835 13.619.571215 4.401 2.83215 8.87 6.548536 12.991 4.509907 4.974 9.69271 7.231 15.681994 9.836l.805483.359c2.149283.944 4.343427 1.988 6.468785 2.987 6.200623 2.953 12.615576 5.996 19.466168 7.254.570218.111 1.186293.201 1.846231.302 1.790405.27 3.816074.584 4.532834 1.135.100686.055.13458.168.202368.347.043863.124.110654.281.21134.438-.235265 2.1-1.622929 4.256-3.581807 5.536-1.21919.797-2.271901.741-3.603739.663-.379813-.034-.760623-.045-1.175327-.057-5.015327-.045-10.431402 4.986-12.68137 8.567-1.21919 1.965-2.16025 4.2-3.079377 6.356-.514393 1.2-1.028785 2.436-1.588038 3.593-3.268785 6.748-6.760872 11.07-10.108411 12.485-.906168.382-1.768473.865-2.618816 1.325-1.118505.628-2.193147 1.213-3.346542 1.594-1.544175.517-3.179066.853-4.757134 1.179-1.578069.315-3.200997.652-4.7681 1.157-8.932087 2.908-13.420062 10.296-17.405607 20.49l-.178443.473c-.391775 1.011-.806479 2.066-1.29894 3.099-1.118505 2.323-2.731465 4.288-4.298567 6.175-2.103427 2.537-4.074268 4.952-4.689346 7.994-.413707 2.078-.42567 4.132-.458567 6.109-.022929 1.246-.033894 2.526-.13458 3.806-.302056 3.481-.638006 7.421 1.410592 11.004 1.410592 2.458 2.865047 4.738 4.38729 7.151l.738692 1.18c.648972 1.021 1.164361 2.121 1.656822 3.2.783551 1.684 1.589034 3.435 2.943801 4.929l.123613.146h.189408c.122617.011.268162.011.42567.011.346916 0 .704798-.023.962991-.101l.100685-.034.08972-.079c1.375701-1.403 2.395514-3.11 3.379439-4.761 1.018816-1.673 2.071527-3.402 3.481122-4.805 3.325607-3.301 6.369096-5.873 9.312897-7.904 6.805732-4.672 14.070031-7.827 21.614455-9.365 6.962243-1.414 15.04299-2.773 22.777819-1.066.010966.011.032897.011.04486.011.100685.023.20137.044.301059.067h.090716c1.790405.293 2.595888-.292 2.595888-.292s.784549-1.213-.379813-.819c-1.175327.393-2.260934.191-2.306791.179h-.009969c-7.959128-1.796-16.196386-.404-23.294206 1.055-7.643115 1.55-15.032024 4.75-21.948411 9.488-2.977694 2.055-6.06704 4.672-9.425545 7.995-1.499315 1.493-2.562991 3.279-3.614704 4.996-.984922 1.64-1.914019 3.178-3.179065 4.503-.168474.023-.469533.033-.794518.033-1.186292-1.358-1.903052-2.919-2.675638-4.569-.503427-1.1-1.017819-2.235-1.700686-3.291l-.749657-1.19c-1.512274-2.413-2.954766-4.67-4.354392-7.129-1.925982-3.323-1.590032-7.118-1.309907-10.454.111651-1.324.133583-2.627.145545-3.885.022929-2.031.04486-3.94.436636-5.939.570218-2.819 2.484237-5.142 4.499937-7.601 1.610966-1.942 3.256823-3.942 4.420187-6.355.504424-1.067.930094-2.134 1.331838-3.178l.168474-.45c3.894829-9.959 8.249221-17.167 16.857321-19.963 1.51028-.505 3.112274-.83 4.667414-1.134 1.600997-.336 3.268785-.685 4.868785-1.201 1.220187-.405 2.383552-1.056 3.50405-1.673.816449-.449 1.655826-.921 2.518131-1.269 3.592772-1.539 7.151651-5.895 10.565981-12.935.571215-1.179 1.09757-2.425 1.6-3.638.907165-2.121 1.836262-4.323 3.022555-6.22 2.138317-3.414 7.253333-8.197 11.909782-8.14.390778 0 .772585.023 1.14243.045 1.3757.078 2.674641.157 4.129096-.809 2.239003-1.46 3.817072-3.974 4.018442-6.389l.011963-.213-.145545-.146zm56.714766 92.632c-2.854081-1.325-4.275638-2.482-4.286604-3.997-.011963-1.527 1.455452-3.414 4.286604-4.839v-.349c-3.055451 1.516-4.611589 3.492-4.589657 5.198.011963 1.663 1.545171 2.92 4.589657 4.312v-.325z"/>
</svg>
