<svg width="194" height="240" viewBox="0 0 194 240" xmlns="http://www.w3.org/2000/svg">
  <title>
    wolfwithin
  </title>
  <g fill="#F5D229" fill-rule="evenodd">
    <path d="M61.569058 216.655426l-3.890852 9.969148L54.645919 218.76l-3.046278 7.864574-3.876861-9.98287 13.846278.013722zm-9.969417 5.607713l1.495426-4.001435h-2.976861l1.481435 4.001435zm6.078565 0l1.495426-4.001435h-2.9771301l1.4817041 4.001435zM62.5928248 220.103139c0-1.98 1.62-3.6 3.5997309-3.6 1.9802691 0 3.6002691 1.62 3.6002691 3.6s-1.62 3.6-3.6002691 3.6c-1.9797309 0-3.5997309-1.62-3.5997309-3.6zm.36 4.624574h6.3971301v1.606278h-6.3971301v-1.606278zm1.246009-4.624574c0 1.107713.886278 1.993991 1.9937219 1.993991 1.1079821 0 1.9942601-.886278 1.9942601-1.993991s-.886278-1.993991-1.9942601-1.993991c-1.1074439 0-1.9937219.886278-1.9937219 1.993991zM77.7674436 224.713991v1.62h-5.2060089v-9.692287h1.62v8.072287h3.5860089M80.6054705 216.641704h6.4662781v1.62h-6.4662781v-1.62zm0 4.04287h6.4662781v1.606278h-4.846009v4.043139h-1.6202691v-5.649417zM103.838923 216.655426l-3.8908516 9.969148L96.9160535 218.76l-3.046278 7.864574-3.8771301-9.98287 13.8462776.013722zm-9.9691475 5.607713l1.495426-4.001435h-2.9771301l1.4817041 4.001435zm6.0782959 0l1.4954256-4.001435h-2.9768605l1.4814349 4.001435zM106.316412 216.641704h1.619731v9.692556h-1.619731v-9.692556zM115.343856 218.150852V220.02h2.423139v1.467713h-2.423139v4.846278h-1.62v-4.846278h-2.42287V220.02h2.42287v-1.869148h-2.42287v-1.509148h6.466009v1.509148h-2.423139M127.098744 216.641704v6.466278h-1.606278v-2.423408h-2.42287v2.423408h-1.62v-6.466278h1.62v2.42287h2.42287v-2.42287h1.606278zm-5.649148 9.692287h5.649417v-1.62h-5.649417v1.62zM130.463049 216.641704h1.619731v9.692556h-1.619731v-9.692556zM143.477937 216.641704v9.692287h-1.633991l-2.381166-3.42-2.43713 3.42h-1.62v-9.692287h1.633991l4.832287 6.895426v-6.895426h1.606009zm-4.998296 4.873722l-1.453991-2.076861v4.112287l1.453991-2.035426zM147.912825 207.36565l-1.918655-1.107713v.947893l-2.121256-1.224754v.969148h-40.634798l-2.664215-2.664215-1.3447533 1.345022-2.3139014-2.31417-2.3149775 2.314978-1.3458296-1.34583-2.6642153 2.664215h-40.181435v-.969148l-2.1212556 1.224754v-.947893l-1.9183856 1.107713 1.9183856 1.107713v-.947892l2.1212556 1.224753v-.969148h40.181435l2.6642153 2.664215 1.3458296-1.345829 2.3149775 2.314977 2.3139014-2.31417 1.3447533 1.345022 2.664215-2.664215h40.634798v.969148l2.121256-1.224753v.947892l1.918655-1.107713zm-54.6583858 1.904933l-1.9049328-1.904933 1.9049328-1.904933.7584753.758476-1.1464574 1.146457 1.1464574 1.146458-.7584753.758475zm.7867264-1.904933l2.8740807-2.87408 2.8738117 2.87408-2.8738117 2.874081-2.8740807-2.874081zm6.5327354 1.904933l-.7573991-.757399 1.1472651-1.147534-1.1472651-1.147533.7573991-.7574 1.904933 1.904933-1.904933 1.904933zM147.912825 235.748879l-1.918655-1.107444v.947623l-2.121256-1.224753v.969148h-40.634798l-2.664215-2.663946-1.3447533 1.344753-2.3139014-2.31417-2.3149775 2.314977-1.3458296-1.34556-2.6642153 2.663946h-40.181435v-.969148l-2.1212556 1.224753v-.947623l-1.9183856 1.107444 1.9183856 1.107713v-.947892l2.1212556 1.224753v-.969148h40.181435l2.6642153 2.664215 1.3458296-1.345829 2.3149775 2.314977 2.3139014-2.313901 1.3447533 1.344753 2.664215-2.664215h40.634798v.969148l2.121256-1.224753v.947892l1.918655-1.107713zm-54.6583858 1.904933l-1.9049328-1.904933 1.9049328-1.904664.7584753.758207-1.1464574 1.146457 1.1464574 1.146457-.7584753.758476zm.7867264-1.904933l2.8740807-2.874081 2.8738117 2.874081-2.8738117 2.874081-2.8740807-2.874081zm6.5327354 1.904933l-.7573991-.757399 1.1472651-1.147534-1.1472651-1.147265.7573991-.757399 1.904933 1.904664-1.904933 1.904933zM65.3657396 74.3104036h5.0803587l7.3638566 2.5695067.3347085-.7573991-7.430583-4.0275336h-5.4258296l-6.8873542 2.0052915.152556.812556 6.812287-.6024215zm.0408969-1.384574h5.0965022l2.7177579 1.4728251-2.6340808-.9191031h-5.2579372l-2.6206278.2316592 2.6983857-.7853812zM108.138744 118.674081l-5.840717 15.667533-5.3827807-.778116-5.3830493.778116-5.8407175-15.667533-2.1083408 1.479013-1.4970404 18.556951 3.6817938 5.173453 8.2170403 5.331121h5.8603588l8.2170408-5.331121 3.681793-5.173453-1.49704-18.556951-2.108341-1.479013zm.53704 1.729506l.509059.35731 1.07435 13.315964-3.163319-9.435067 1.57991-4.238207zm-24.0304031.35731l.5090583-.35731 1.5799103 4.238207-3.1633184 9.435067 1.0743498-13.315964zm-1.3765023 17.701345l4.0805381-12.170314 3.152287 8.456233-5.3916592 3.821704.3715695 3.000808-2.2127354-3.108431zm10.3818834 9.227623l-3.1565919-2.00556 3.2521076.45417-.0955157 1.55139zm6.433184-1.55139l3.252108-.45417-3.156592 2.00556-.095516-1.55139zm5.508161-1.887444l-6.6769504.932287.18 2.923588H94.735067l.18-2.923588-6.6769507-.932287-1.4200897-.902152-.5273543-4.258117 5.0900449-3.60834 5.5345291-.799911 5.5342597.799911 5.090045 3.60834-.527085 4.258117-1.420359.902152zm-2.263318-9.50287l3.152018-8.456233 4.080538 12.170314-2.212466 3.108431.3713-3.000808-5.39139-3.821704zM123.384125 74.3104036h5.080359l6.812556.6024215.152287-.812556-6.887085-2.0052915h-5.426099l-7.430583 4.0275336.334709.7573991 7.363856-2.5695067zm-.05704-1.384574h5.096502l2.698386.7853812-2.602601-.2300449-5.275964-.0016143-2.634081.9191031 2.717758-1.4728251z"/>
    <path d="M193.776233 190.160179l-6.429955-7.858654 4.593632-5.742242-8.635426-3.963767 3.648969-10.705292-2.71453-2.972018-2.859551-12.749865 2.157309-1.195157-7.053901-11.2687 1.138924-3.07991-5.817848-7.206996 4.04287-10.675964 2.667713-1.693991-8.067713-14.2436768 2.338386-.4520179-2.899103-8.26574 2.805201-4.8236771-10.378116-17.6983856 3.931211-12.7294171-6.882781-4.2513901 7.768251-19.6086996 3.105471-25.40529145L166.410583.1697758l-20.96018 10.8546188-24.723767 6.5930045-13.218834-3.3965919H86.3224212l-13.2188341 3.3965919-24.7237668-6.5930045L27.419641.1697758l-3.8246637 3.39955155 3.1054708 25.40529145 7.7682511 19.6086996-6.8827802 4.2513901 3.9312107 12.7294171-10.3781166 17.6983856 2.8038566 4.8271749-2.8974888 8.2622422 2.3381166.4520179-8.0677131 14.2436768 2.6677131 1.693991 4.0428699 10.675964-5.8178475 7.206996 1.1389237 3.07991-7.0539013 11.2687 2.1573094 1.195157-2.85955156 12.749865-2.71452914 2.972018 3.6492377 10.705292-8.6356951 3.963767 4.59363228 5.742242-6.4296861 7.858654 12.79237672 4.973543 5.755695-5.36852 7.1817041 1.412556.0056502.004305 12.6355157 9.599193 8.9066368-10.179283 20.8740807-.903498 15.7869955 7.809955 12.9223318 2.808969 12.8553367-2.794708.066726-.014261 15.786996-7.809955 20.87408.903498 8.906637 10.179283 12.641166-9.603498 7.436502-1.345023 5.500897 5.300987 12.792646-4.973543zm-1.823408-.479731l-9.775157 3.800718 4.592556-10.134888 5.182601 6.33417zm-1.763677-12.705739l-3.927444 4.909506-10.45157 6.445292-3.881704-8.902332 2.610942-7.894171 7.897668 1.883139 7.752108 3.558566zm-29.293184-2.912826l8.29991-5.364753 1.978924-3.576592 2.407534 5.778027-5.858207 17.712915-6.828161-14.549597zM26.1060983 188.61148l-5.8582062-17.712915 2.4075336-5.778027 2.0303139 3.411121 8.2485202 5.530224-6.8281615 14.549597zm-4.3929147-37.311659l-.7587444 2.446009 9.0425112-2.40861-4.8707624 15.76843-8.487982-14.260089 2.6426906-2.893184 2.432287 1.347444zm7.8026905-21.417579l.9034978 6.177579 8.2070852 3.863139-.8523767 4.921614 1.3159641 2.924126-16.4838565 4.391031 6.9096861-22.277489zm3.1555157-64.195964l2.7809866-15.3373991 4.7730941 7.6867265-7.7281614 21.1393722.1740807-13.4886996zm14.6469955-51.0043049l.0594619.0395516 10.0439462 3.4399103 6.2238565 6.664843-1.1591031 6.4512108-5.8767713 3.6298655-9.3476233-13.1792826-10.1128252-4.9377578-2.1826008 2.3730942 1.1714798 8.8372197.009417.0729148 6.198565 14.838296-5.5627802-2.0827803-6.3425112-14.4839462-2.3510314-16.92780268 2.7842152-2.72798207 9.4864574 3.36457395 6.9578475 4.6280718zm31.9619731 9.9976682L54.8528248 13.8871749l17.972287 4.8021525 6.4552466 5.9903139zM96.9152463 38.856861l7.2745287-11.5652018 6.216861 8.4457399-13.4913897 7.615426-13.4913901-7.615426 6.2165919-8.4457399 7.2747982 11.5652018zm-6.2163228-13.0030493l1.4728251-2.0007175 4.7434977 5.4161435 4.7432287-5.4161435 1.472825 2.0007175-6.2160537 9.8825112-6.2163228-9.8825112zm30.3061885-7.1642153l17.916054-4.7776681-24.371301 10.767713 6.455247-5.9900449zm24.847264-6.6260986l11.724216-6.0713005-11.618745 7.7276233-10.170403 3.4832287-6.791032 7.2726458 1.081346 6.0199103-6.805292-4.2034978-.252915-4.1434977 22.816413-10.0805382.016412-.0045739zm15.306458 53.6230493l.17408 13.4886995-7.728161-21.1393722 4.773094-7.6869955 2.780987 15.3376682zm10.065471 86.4731839l-16.483857-4.391031 1.315695-2.924126-.852376-4.921614 8.207085-3.863139.903497-6.177579 6.909956 22.277489zm3.325022-2.207354l2.642691 2.893184-8.487982 14.260089-4.870763-15.76843 9.042511 2.40861-.758744-2.446009 2.432287-1.347444zm-25.154529 10.920269l8.639731 1.62 1.521794 10.84278-5.751122.27713-4.410403-12.73991zm-109.3697759 12.73991l-5.7511211-.27713 1.5220628-10.84278 8.6394619-1.62-4.4104036 12.73991zm-4.3732735-12.219821l-4.0888789-10.472556 7.3178475-1.949327-2.9286996 6.521973 7.730583 4.393991-8.030852 1.505919zm-.9177579.695247l-1.5207175 10.835516-7.2726457-4.701256 4.9417937-15.998744 3.8515695 9.864484zm2.6408072-7.060359l2.4882511-5.540986 4.2064574 9.346009-6.6947085-3.805023zm3.3341704-20.63704l8.3709417-8.363139-.5332735 12.675874 9.9390134-7.194618-1.0100448 10.212914-18.4528251 2.403767 1.6861883-9.734798zm-8.2547085-51.8717489l8.8794619-24.2889686 15.313991-22.0439462 6.0906726-3.7619731 2.5455606 5.8415247 7.8898655-7.0417938 22.4973094 12.6987444-18.6061884 8.0319283 6.5418834 16.5287892-1.2435874 7.9923767-3.3984753-6.4170404-6.1748879-4.7453811-12.5001794-5.7659193-6.3879821 4.8747982v-3.3134529l4.8766816-14.6297758-9.9774887 11.1239462-.0780269.0871749-3.74287 11.4793722 4.3487892-.3535426 1.0479821 14.3469955-15.3723767 15.018565-2.7425112-.7541704.1923767-14.9082511zm14.9348879-58.8484305l7.9121973 11.2999103-9.4571301-2.3200897 1.5449328-8.9798206zm-.950583-1.0076233l-3.3107623 19.2457399-5.9012556-14.1263677-1.0205381-7.6980269 10.232556 2.5786547zm-9.8515695-3.6250225l.8187444-.8897757 4.6393722 2.2652018-5.4581166-1.3754261zm9.0688789 14.7067265l9.1878027 2.2539014-10.7139013 6.6174887 1.5260986-8.8713901zm75.0005379-2.5208072l7.890135 7.0417938 2.545291-5.8415247 6.090942 3.7619731 15.313722 22.0439462 8.879462 24.2892376.192377 14.9079821-2.742512.7541704-15.372376-15.018565 1.047982-14.3469955 4.348789.3535426-3.74287-11.4793722-10.055516-11.2111211 4.876682 14.6297758v3.3134529l-6.387982-4.8747982-12.50018 5.7659193-6.174618 4.7453811-3.398745 6.4170404-1.243587-7.9923767 6.541614-16.5287892-18.6059192-8.0319283 22.4973092-12.6987444zm1.282601-8.5974888l.262601 4.3065471 7.938565 4.9033184L128.142421 36.42l-7.33991-6.5504933-3.864215 2.1809866-4.013274-5.4417041 9.013991-3.9826009zm27.761435 19.9896861l-10.713901-6.6174887 9.187802-2.2539014 1.526099 8.8713901zm-2.308789-19.9530941l10.232556-2.5786547-1.020538 7.6980269-5.901256 14.1263677-3.310762-19.2457399zm4.393722-2.2495964l4.639103-2.2652018.818744.8897757-5.457847 1.3754261zm-3.799372 12.2370403l-9.45713 2.3200897 7.912466-11.2999103 1.544664 8.9798206zM154.80852 144.1313l-18.439372-2.261165-1.024574-10.361435 9.939013 7.194618-.533273-12.675874 8.37121 8.363139 1.686996 9.740717zm-57.8932737 25.381077l-3.2529148 8.678744-26.0246636-18.269865 4.5828699-17.227534 2.7478924 12.425381 10.3146188 5.587265h.0002691l6.9226009 3.738296h9.418386l6.922601-3.738296h.000269l10.314618-5.587265 2.747893-12.425381 4.583139 17.227534-26.024933 18.269865-3.2526457-8.678744zm-28.7243946-33.081794l3.3702242 3.945202-14.7901345 19.726816 2.8520179-28.83713 8.5678924 5.165112zM41.930493 101.221076l9.1116592-9.951928-7.9775785 13.766637-1.1340807-3.814709zm9.1183856-24.0629594l-.6344394-8.681435 10.0218834-7.647982 6.8924663 3.1148878-6.9352466-1.440269-8.4473543 6.1676233-.8973094 8.4871749zm-1.4152466-9.4786547l-3.0844843.2510314 3.1544394-9.6750673 6.336592-7.0649327-3.2459193 9.7382959v4.3385651l-3.1606278 2.4121076zm22.7650224-1.2699552l5.7 4.3805381 1.9092377 3.604574-8.2555157-6.1738116.646278-1.8113005zm-19.40287 2.8662781l7.6541705-5.5880718 10.7472645 2.2321076-.9629596 2.6983857 10.786278 8.0660986 2.7613453 5.2140808-1.7784753 16.9060089-.9457399-14.1680717-3.5469956-4.8772198-22.2573094-4.0950672-.3912107 3.2303139 4.666547 2.7704932 7.3880718 8.3639462 13.6493273 3.8717489.0618835.9242153-22.6347982-3.636592-6.6696861-7.9843049 1.4722869-13.9280717zm43.9194619-24.6513902l.0328251-.0182959 4.0248426 1.7373094 6.709507 14.8829596-3.461166 9.5994619-1.286636-5.4726457-6.0193727-3.1600897-6.0196412 3.1600897-1.2866368 5.4726457-3.4611659-9.5994619 6.7095067-14.8829596 4.0248431-1.7373094.0330941.0182959zm47.2813457 23.0550673l-3.160628-2.4121076v-4.3385651l-3.24565-9.7382959 6.336322 7.0649327 3.15444 9.6750673-3.084484-.2510314zm-.780808.7972197l-.634439 8.681435-.897309-8.4871749-8.447355-6.1676233-6.935246 1.440269 6.892466-3.1148878 10.021883 7.647982zm-21.337668-.2558744l-8.255784 6.1738116 1.909237-3.604574 5.700269-4.3805381.646278 1.8113005zm-9.46843 8.4634977l10.786278-8.0660986-.96296-2.6983857 10.747265-2.2321076 7.65417 5.5880718 1.472287 13.9280717-6.669686 7.9843049-22.634798 3.636592.061883-.9242153 13.649328-3.8717489 7.38834-8.3639462 4.666278-2.7704932-.39121-3.2303139-22.25731 4.0950672-3.546995 4.8772198-.94574 14.1680717-1.778475-16.9060089 2.761345-5.2140808zm38.156233 28.3514801l-7.977848-13.766637 9.11166 9.951928-1.133812 3.814709zm-42.499372 54.56287H85.5636768l-9.6228699-5.212467-5.2872646-23.683049-10.4787444-5.412377-11.2420628-25.6972194 30.4821525 19.4338114 11.921435-50.7083405 5.5789237 27.5921973 5.5786547-27.5921973 11.921435 50.7083405 30.482152-19.4338114-11.242062 25.6972194-10.478745 5.412377-2.126367 9.394709-.001077.001076-3.15982 14.287264-9.62287 5.212467zm-2.050763 1.107713l-4.871569 2.630583h-8.8579373l-4.8718385-2.630583h18.6013448zM56.5260983 90.9204484l-3.6608071-.5881614 1.2982063-2.2401794 2.3626008 2.8283408zm-4.255426.4380269l24.4999104 3.9363229-28.0665471 2.2183857 3.5666367-6.1547086zm12.0139911 6.0341704l12.8004484 18.8356953-27.6973991-17.6582962 14.8969507-1.1773991zm14.5191928 19.3939913l-13.2484305-19.49435 15.3562332-1.213722.6104933 9.145561-2.718296 11.562511zm13.1981166-50.7632289l4.9132735-2.5794619 4.9130047 2.5794619-4.9130047 24.2989237-4.9132735-24.2989237zm47.6647532 22.0686995l1.298206 2.2401794-3.660807.5881614 2.362601-2.8283408zm1.892825 3.2663677l3.566637 6.1547086-28.066278-2.2183857 24.499641-3.9363229zm2.88296 7.2115695l-27.697399 17.6582962 12.800717-18.8356953 14.896682 1.1773991zm-31.523946-2.4914798l15.356233 1.213722-13.248431 19.49435-2.718296-11.562511.610494-9.145561zm11.224574 35.372018l7.684843-3.969417-9.232736 10.808072 1.547893-6.838655zm22.060358-32.0784754l3.894888 6.7213454-14.010941 16.401256 10.116053-23.1226014zM123.16269 79.5895964c.528431.4942601.837041 1.1886996.837041 1.9202691 0 1.4504932-1.180359 2.630852-2.630852 2.630852-1.450494 0-2.630583-1.1803588-2.630583-2.630852 0-.4046637.093901-.7977579.269596-1.1558745l4.154798-.7643946zm-1.793811 5.381704c1.908699 0 3.461435-1.5527354 3.461435-3.4614349 0-.6503139-.188879-1.2761435-.522512-1.8161435 1.714171.9400897 2.790673 2.7260986 2.790673 4.7238565 0 2.9773991-2.422601 5.3997309-5.399731 5.3997309-2.977399 0-5.4-2.4223318-5.4-5.3997309 0-1.4558745.599462-2.8541704 1.641794-3.8671749l.108699-.0199103c-.093094.3156054-.141793.6446637-.141793.9793722 0 1.9086995 1.553004 3.4614349 3.461435 3.4614349zm4.155874-5.8162331l11.89426-2.1885202.162511 1.3439462-4.194888 2.4906726-6.033094 6.8297758c.541346-.9486995.852377-2.0451121.852377-3.2133632 0-2.1304036-1.016771-4.0606278-2.681166-5.2625112zm-5.370942 11.5829596l-7.01139 1.9888789.513902-7.6974888 1.818834-2.5008968c-.185112.6078027-.283857 1.2435874-.283857 1.8890583 0 3.0559641 2.117758 5.6252018 4.962511 6.3204484zM108.7113 81.678296l1.569955 14.9249327-5.595336-23.8003587 4.190852-11.6227803-6.395516-14.1855606 12.858565 5.5509418-6.257219 15.8104035 1.517757 9.7557848-1.889058 3.5666368zM84.9537217 61.1800897L89.1443046 72.80287l-5.5953363 23.8003587 1.5699552-14.9249327-1.8890583-3.5666368 1.5177578-9.7557848-6.2574888-15.8104035 12.8588341-5.5509418-6.3952466 14.1855606zm-9.0640359 19.3703139c1.0423318 1.0130045 1.6417937 2.4113004 1.6417937 3.8671749 0 2.9773991-2.4226009 5.3997309-5.3997309 5.3997309-2.9773991 0-5.399731-2.4223318-5.399731-5.3997309 0-1.9977579 1.0762332-3.7837668 2.7904036-4.7238565-.3336323.54-.5225112 1.1658296-.5225112 1.8161435 0 1.9086995 1.5527354 3.4614349 3.461435 3.4614349 1.9086995 0 3.461435-1.5527354 3.461435-3.4614349 0-.3347085-.0486996-.6637668-.1417938-.9793722l.1086996.0199103zm-1.0670852-.1964126c.175426.3581166.2693273.7512108.2693273 1.1558745 0 1.4504932-1.1800896 2.630852-2.6305829 2.630852-1.4504933 0-2.630583-1.1803588-2.630583-2.630852 0-.7315695.3083408-1.426009.8367713-1.9202691l4.1550673.7643946zm-9.198296 4.0635875c0 1.1682511.3110314 2.2646637.8523767 3.2133632l-6.0330942-6.8297758-4.1948879-2.4906726.1625113-1.3439462 11.8945291 2.1885202c-1.6646637 1.2018834-2.681435 3.1321076-2.681435 5.2625112zm13.0148879 0c0-.6454709-.0987444-1.2812556-.2841255-1.8890583l1.818834 2.5008968.5139014 7.6974888-7.0113901-1.9888789c2.8447533-.6952466 4.9627802-3.2644843 4.9627802-6.3204484zM47.6269952 99.3721076L57.74278 122.494709l-14.0109417-16.401256 3.8951569-6.7213454zm22.0600897 32.0784754l1.5481614 6.838924-9.2330045-10.808341 7.6848431 3.969417zm55.9522871 4.98l8.568161-5.165381 2.851749 28.837399-14.790134-19.726816 3.370224-3.945202zm10.035605-6.050045l7.94852-4.791928.45713 10.876681-8.40565-6.084753zm-7.757758 3.383677l21.945471-25.689686-2.429865 8.175067.583856 5.39731-20.099462 12.117309zm21.10009-13.163946l-.459551-4.248699 4.582062-15.416234-12.654888-13.8223315 2.438476-2.9192825 20.247175 19.780897-14.153274 16.62565zM50.9068158 84.193722l2.4387444 2.9192825-12.6551569 13.8223315 4.5820628 15.416234-.4595516 4.248699-14.1532735-16.62565 20.2471748-19.780897zm-6.9392825 23.880807l21.9454709 25.689686-20.0991928-12.117309.5835874-5.39731-2.4298655-8.175067zm14.187713 22.306009l-8.4056502 6.084753.4571301-10.876412 7.9485201 4.791659zm-18.8042152 14.819193l18.0126457-2.346188-1.8244843 18.448251-5.5364125-1.628072-10.6517489-14.473991zm31.6501345-2.230224l-4.6030493 17.301524.0433184.057041-.8117489 19.805381-8.9572197-18.052466 14.3286995-19.11148zM67.46278 162.449596l10.1712107 21.811211-10.9670852-2.387085.7958745-19.424126zm25.7978475 16.812915l-3.6901345 9.846458-20.0015247-26.478565 23.6916592 16.632107zm3.6546188-6.593811l6.5539907 17.486905-6.5539907 8.676323-6.5542601-8.676323 6.5542601-17.486905zM104.26 189.108969l-3.690404-9.846458 23.691659-16.632107L104.26 189.108969zm22.903318-7.235247l-10.967085 2.386816 10.171211-21.810942.795874 19.424126zm1.03722-1.740269l-.811749-19.805381.043318-.057041-4.60278-17.301524 14.328431 19.11148-8.95722 18.052466zm10.090493-18.831659l-1.809955-18.301884 17.993273 2.206278-10.646636 14.467534-5.536682 1.628072zm19.887444.090941l-8.030852-1.505919 7.730852-4.393991-2.928969-6.521973 7.317848 1.949327-4.088879 10.472556zm-1.723049-6.365112l-6.69444 3.805023 4.206189-9.34574 2.488251 5.540717zm2.641076 7.060359l3.8513-9.864484 4.941794 15.998744-7.272646 4.701256-1.520448-10.835516zm3.304574-26.77722l-7.393453 3.480269-.854798-4.935874-8.898565-8.889955 16.885829-3.52009 2.523498-1.602242-2.262511 15.467892zm-.976144-14.848251l-14.213542 2.963408 1.756951-1.059282 14.195246-16.675426-1.738655 14.7713zm-1.681614-21.3847532l2.006906-.5518385 1.043677 3.5321977-3.050583-2.9803592zm-6.77704-42.1132735l-13.421166-19.3191928 18.371031 11.3469955-4.949865 7.9721973zm4.716323-28.8909417l1.180896-8.9101345-2.1826-2.3730942-10.112556 4.9377578-9.347893 13.1792826-5.876771-3.6298655-1.159103-6.4512108 6.223856-6.664843 10.043946-3.4399103 7.017579-4.6676234 9.486188-3.36457395 2.784215 2.72798207-2.351031 16.92780268-6.342511 14.4839462-5.56278 2.0827803 6.198565-14.838296zm-42.201794 4.7997309l-3.616951 2.0413453-6.723498-9.1342601 2.351839-3.7391031 7.98861 10.8320179zm-33.5144396 2.0413453l-3.3551569-1.8936323 7.7413452-10.9565919 2.3373095 3.7159641-6.7234978 9.1342601zm-10.3377578-7.9818834l.2626009-4.3065471 9.1678923 4.0504036-3.9021524 5.5234978-4.1289686-2.330583L65.6878024 36.42l-1.9977579-4.5839462 7.6942601-4.7523767.244305-.1509417zm-17.3434978 10.712287L40.8639459 56.9644843l-4.9498655-7.9721973 18.3710314-11.3472646zM34.0869055 99.0777578l-3.0505829 2.9803592 1.0436771-3.5321977 2.0069058.5518385zm10.7749776 23.2888792l1.7569507 1.059013-14.2135426-2.963139-1.7386547-14.7713 14.1952466 16.675426zm-13.1717489-.921525l16.8858296 3.52009-8.898565 8.889955-.8547982 4.935874-7.3934529-3.480269-2.2625112-15.467892 2.5234977 1.602242zm8.1659193 53.268162l-2.6265471 15.964035-2.9200897-16.230941 5.5466368.266906zm-2.0402691 19.223408l2.838296-17.252556 5.7694171 13.273722-7.7335426 8.838565-.8741705-4.859731zm3.0842153-19.465561l4.4378475-12.819821 3.1070852 6.903767-1.731121 19.292018-5.8138117-13.375964zm8.5506726-4.727892l16.3778476 17.535605-17.1842153-8.550673.8063677-8.984932zm-.9126457 10.169327l17.616861 8.765919-18.475426.799642.858565-9.565561zm.9392825-11.763498l-8.4823318-18.846995 8.3370403 11.328968 6.3040359 1.853543 9.9443946 20.041076 1.4394619 4.406099-17.5426009-18.782691zm17.4438565 14.913633l11.3012556 2.459461 4.7857399 10.263229-14.2302242-7.039372-1.8567713-5.683318zm2.7984754-18.394978l25.8530044 34.224215-11.0095964-2.393273-14.843408-31.830942zm54.391211-.000538l-14.843677 31.83148-11.0095968 2.393273 25.8532738-34.224753zm-8.50305 20.854977l11.301256-2.459461-1.856771 5.683318-14.230225 7.039372 4.78574-10.263229zm12.642243-2.996502l9.944125-20.041076 6.304036-1.853543 8.33704-11.328968-8.482332 18.846995-17.5426 18.782691 1.439731-4.406099zm16.129506-12.782421l.806637 8.984932-17.184484 8.550673 16.377847-17.535605zm.912915 10.169327l.858296 9.565561-18.475426-.799642 17.61713-8.765919zm.092825-11.357489l3.107085-6.903767 4.437848 12.819821-5.813812 13.375964-1.731121-19.292018zm7.791121 8.129059l2.838027 17.252825-.87417 4.859462-7.733543-8.838565 5.769686-13.273722zm3.424574 13.993452l-2.626547-15.964304 5.546368-.266906-2.919821 16.23121zm25.656323-18.442869l-7.681614-1.83148-2.695157-6.468162 6.092018-10.234977 7.721166 8.453004-3.436413 10.081615zm.47731-14.963409l-7.189238-7.870762 4.824484-2.672825 2.364754 10.543587zm-.756592-12.700627l-10.195965 5.64861-.641165-2.067444 4.856771-13.134888 5.980359 9.553722zm-5.613095-13.74l-5.762959 15.584394-5.493902-17.712915 3.755516 2.479911 2.48583-6.563946 5.015515 6.212556zm-8.046457-1.335875l-3.599731-2.37713 1.178475-8.058296 8.390314-5.327623-5.969058 15.763049zm8.712915-18.817668l-14.416682 9.15444 1.876144-15.939552-1.659552-5.6163229 6.468162-1.2500449 7.731928 13.6514798zm-13.628072-13.6401793l5.703229-7.8260987 2.20843 6.2970404-7.911659 1.5290583zm5.412377-9.3078027l-6.156054 8.4476233-.366727-28.4580269 9.115965 15.5464574-2.593184 4.4639462zm-6.963498-24.4261884l-2.425291-13.3775784 5.506547 3.4011659-3.081256 9.9764125zm4.195426-34.6041255l-7.643408 19.2930942-6.540269-4.0396413 6.009955-2.2501345 6.560718-14.9827803.030941-.0702242 2.448969-17.6324664-3.67722-3.6024215-5.981973 2.1217937 9.023139-6.0018834 2.786906 2.4774888-3.017758 24.6871749zM86.4626006 15.3285202h20.9050224l12.241614 3.1452915-7.530403 6.987713-4.695606-6.3672646-3.301345 5.2482511-2.310673-3.1393722-4.8559637 5.5444843-4.8559641-5.5444843-2.3109417 3.1393722-3.3158744-5.2711211-4.5807175 6.4834978-7.6307624-7.0810762 12.2416144-3.1452915zm-38.5049327-3.2838565l-.0026906.0059193 22.855695 10.0980269-.2529148 4.1434977-6.8052914 4.2034978 1.0813453-6.0199103-6.7910314-7.2726458-10.1704036-3.4832287L36.253901 5.9921973l11.6704036 6.0435875.0333633.0088789zM27.7828697 28.6988341l-3.018027-24.6871749 2.7869059-2.4774888 9.023408 6.0018834-5.9822421-2.1217937-3.6772197 3.6024215 2.4489686 17.6324664 6.5919282 15.0530045 6.0096861 2.2501345-6.54 4.0396413-7.643408-19.2930942zm6.6204484 21.2265471l-2.4252915 13.3775784-3.0812556-9.9764125 5.5065471-3.4011659zm-2.866009 17.7936323l-.3667264 28.4577578-6.1560539-8.4476233-2.5931838-4.4639462 9.1159641-15.5461883zm-6.812556 21.4888789l5.7024215 7.8290583-7.9119283-1.5290583 2.2095068-6.3zm-.1939911 7.8177578l6.4681615 1.2500449-1.6592825 5.6163229 1.8761434 15.939552-14.4169506-9.15444 7.7319282-13.6514798zm3.4022422 22.0337218l1.1784753 8.058296-3.5997309 2.37713-5.9690583-15.763049 8.3903139 5.327623zm-5.4521973 5.558745l2.4858296 6.563946 3.7555157-2.479911-5.4939014 17.712915-5.7626906-15.584394 5.0152467-6.212556zm-4.6482512 10.398834l4.8567713 13.134888-.6411659 2.067444-10.1959641-5.64861 5.9803587-9.553722zm-4.3721973 11.710762l4.8247534 2.672825-7.1895067 7.870762 2.3647533-10.543587zm-5.32385646 15.425381l7.72116596-8.453004 6.0920179 10.234977-2.695157 6.468162-7.6816143 1.83148-3.43641256-10.081615zm3.25668166 11.263049l7.8979372-1.883139 2.6106726 7.894171-3.881704 8.902332-10.45156953-6.445292-3.92744394-4.909506 7.75210767-3.558566zm-4.3331839 9.930135l4.592556 10.134888-9.7751569-3.800718 5.1826009-6.33417zm5.8380269 10.2l-4.44860986-9.817399 8.92466366 5.503587-4.4760538 4.313812zm6.1576682-4.820987l3.3675336-7.722242 2.9660986 8.968251-6.3336322-1.246009zm14.3480717-13.056861l4.1480718 23.058296-11.0348879-8.383318 6.8868161-14.674978zm122.8746185 23.058296l4.148072-23.058296 6.886816 14.674978-11.034888 8.383318zm12.162512-8.755426l2.966367-8.968251 3.367265 7.722242-6.333632 1.246009zm16.93991-6.242421l-4.44861 9.817399-4.476054-4.313812 8.924664-5.503587z"/>
  </g>
</svg>
